<svg xmlns="http://www.w3.org/2000/svg" viewBox="0 0 24 24"><path d="M7.13 3.75c.28-.01.56-.01.84 0 1.52.07 2.61.5 3.75.95 1.21.48 2.47.97 4.25 1.05.16 0 .32.01.48.01 1.6 0 3.23-.36 4.85-1.07.38-.17.55-.61.38-.99-.17-.38-.61-.55-.99-.38-1.57.69-3.14 1-4.66.94-1.53-.07-2.61-.5-3.76-.95-1.21-.48-2.47-.97-4.24-1.05-.32-.01-.65-.01-.97 0-.41.02-.73.37-.71.78.02.41.37.74.78.71zM3 4.75c.1 0 .2-.02.3-.06.32-.14.63-.26.94-.37.39-.14.6-.56.46-.95-.14-.39-.56-.6-.95-.46-.35.12-.7.26-1.06.42-.38.17-.55.61-.38.99.12.28.4.45.69.45zM20.7 7.32c-.94.41-1.89.7-2.81.84-.41.06-.69.45-.63.85.06.37.38.64.74.64.04 0 .08 0 .11 0 1.05-.16 2.13-.48 3.19-.95.38-.17.55-.61.38-.99-.17-.38-.61-.55-.99-.38zM3.3 8.7c1.57-.69 3.14-1 4.66-.94 1.52.07 2.61.5 3.76.95.65.26 1.33.52 2.09.72.06.02.13.02.19.02.33 0 .64-.22.72-.56.11-.4-.13-.81-.53-.92-.68-.18-1.28-.42-1.92-.67-1.21-.48-2.47-.97-4.24-1.05-1.77-.08-3.55.28-5.34 1.06-.38.17-.55.61-.38.99s.61.55.99.38zM20.7 11.31c-1.57.69-3.14 1-4.66.94-1.53-.07-2.61-.5-3.76-.95-.38-.15-.82.04-.97.42-.15.39.04.82.42.97 1.21.48 2.47.97 4.24 1.05.16 0 .32.01.48.01 1.6 0 3.23-.36 4.85-1.07.38-.17.55-.61.38-.99-.17-.38-.61-.55-.99-.38zM3 12.75c.1 0 .2-.02.3-.06 1.57-.69 3.14-1 4.66-.94.41.01.76-.3.78-.71s-.3-.76-.71-.78c-1.77-.08-3.55.28-5.34 1.06-.38.17-.55.61-.38.99.12.28.4.45.69.45zM19 17.44c.06 0 .12 0 .18-.02.7-.17 1.41-.42 2.12-.73.38-.17.55-.61.38-.99-.17-.38-.61-.55-.99-.38-.63.28-1.26.5-1.88.65-.4.1-.65.51-.55.91.08.34.39.57.73.57zM3.3 16.69c1.57-.69 3.14-1 4.66-.94 1.52.07 2.61.5 3.75.95 1.21.48 2.47.97 4.25 1.05.01 0 .02 0 .04 0 .4 0 .73-.31.75-.72.02-.41-.3-.76-.71-.78-1.53-.07-2.61-.5-3.76-.95-1.21-.48-2.47-.97-4.24-1.05-1.77-.08-3.55.28-5.34 1.06-.38.17-.55.61-.38.99s.61.55.99.38zM20.7 19.3c-1.57.69-3.14 1-4.66.94-.33-.02-.63-.05-.92-.09-.42-.06-.79.22-.85.63-.06.41.22.79.63.85.34.05.7.09 1.08.1.16 0 .32.01.48.01 1.6 0 3.23-.36 4.85-1.07.38-.17.55-.61.38-.99-.17-.38-.61-.55-.99-.38zM11.25 18.9c-.77-.28-1.84-.6-3.22-.66-1.76-.08-3.55.28-5.34 1.06-.38.17-.55.61-.38.99.12.28.4.45.69.45.1 0 .2-.02.3-.06 1.57-.69 3.14-1 4.66-.94 1.17.05 2.07.32 2.78.58.39.14.82-.06.96-.45.14-.39-.06-.82-.45-.96z"/></svg>