<svg xmlns="http://www.w3.org/2000/svg" enable-background="new 0 0 4800 4800" viewBox="0 0 4800 4800"><circle cx="2951.489" cy="1830.597" r="957.576" fill="#ffae21"/><path fill="#ffae21" d="M4157.047,1030.764l-291.604,11.108c-30.971,1.18-49.05,35.444-32.543,61.675l155.422,246.982
					c16.507,26.231,55.22,24.757,69.684-2.654l136.182-258.09C4208.651,1062.373,4188.017,1029.584,4157.047,1030.764z"/><path fill="#ffae21" d="M4369.515,2117.487l-214.049-198.34c-22.734-21.065-59.746-9.621-66.623,20.599l-64.743,284.542
					c-6.876,30.221,21.541,56.552,51.151,47.397l278.792-86.202C4383.653,2176.329,4392.249,2138.552,4369.515,2117.487z"/><path fill="#ffae21" d="M3751.322,3036.154l-11.108-291.603c-1.18-30.971-35.444-49.05-61.675-32.543l-246.982,155.421
					c-26.231,16.507-24.757,55.22,2.654,69.684l258.09,136.182C3719.713,3087.759,3752.502,3067.125,3751.322,3036.154z"/><path fill="#ffae21" d="M2664.599,3248.622l198.34-214.049c21.065-22.734,9.621-59.746-20.599-66.623l-284.542-64.743
					c-30.221-6.876-56.552,21.541-47.397,51.151l86.202,278.792C2605.757,3262.76,2643.533,3271.356,2664.599,3248.622z"/><path fill="#ffae21" d="M1745.932,2630.43l291.603-11.108c30.971-1.18,49.05-35.444,32.543-61.676l-155.421-246.982
					c-16.507-26.232-55.22-24.757-69.684,2.654l-136.182,258.09C1694.327,2598.82,1714.961,2631.61,1745.932,2630.43z"/><path fill="#ffae21" d="M1533.464,1543.706l214.049,198.34c22.734,21.065,59.746,9.621,66.623-20.599l64.743-284.542
					c6.876-30.221-21.541-56.552-51.151-47.397l-278.792,86.202C1519.325,1484.865,1510.73,1522.641,1533.464,1543.706z"/><path fill="#ffae21" d="M2151.656,625.039l11.108,291.603c1.18,30.971,35.444,49.05,61.675,32.543l246.982-155.421
					c26.231-16.507,24.757-55.22-2.655-69.684l-258.09-136.182C2183.266,573.435,2150.476,594.069,2151.656,625.039z"/><path fill="#ffae21" d="M3238.38,412.571l-198.34,214.049c-21.065,22.734-9.621,59.746,20.6,66.622l284.542,64.743
					c30.221,6.876,56.552-21.541,47.397-51.151l-86.202-278.792C3297.221,398.433,3259.445,389.838,3238.38,412.571z"/><path fill="#fff" d="M2377.933,4342.929c96.293-67.463,141.88-186.755,116.828-301.63l-91.067-417.587
			c-85.853-178.633-768.646-200.658-850.818,2.504l-121.49,399.857c-38.074,125.312,11.249,261.16,121.623,331.661"/><path fill="#212121" d="M1553.004,4363.581c-1.077,0-2.167-0.298-3.142-0.92c-27.653-17.664-51.996-39.611-72.352-65.233
			c-19.836-24.968-35.471-52.88-46.471-82.963c-10.984-30.04-17.066-61.476-18.076-93.434c-1.034-32.715,3.282-65.235,12.83-96.658
			l121.49-399.856c0.051-0.167,0.109-0.332,0.174-0.493c9.448-23.36,26.818-44.646,51.625-63.265
			c22.944-17.22,52.361-32.253,87.434-44.681c64.971-23.022,147.781-36.734,239.479-39.654
			c106.331-3.387,213.126,7.977,300.701,31.997c67.299,18.459,153.551,53.005,182.268,112.758c0.197,0.41,0.346,0.842,0.443,1.286
			l91.065,417.588c12.562,57.604,8.01,117.062-13.167,171.944c-21.256,55.089-57.917,102.02-106.018,135.72
			c-2.644,1.855-6.29,1.212-8.144-1.434c-1.853-2.645-1.211-6.29,1.434-8.143c94.292-66.062,139.224-182.09,114.471-295.596
			l-90.918-416.908c-10.846-22.148-31.903-42.648-62.602-60.943c-29.492-17.575-67.149-32.714-111.926-44.995
			c-86.477-23.72-192.038-34.938-297.236-31.587c-90.508,2.882-172.097,16.364-235.946,38.989
			c-69.474,24.617-115.12,59.562-132.027,101.069l-121.413,399.602c-37.291,122.736,11.716,256.395,119.176,325.034
			c2.721,1.738,3.518,5.354,1.78,8.075C1556.821,4362.627,1554.933,4363.581,1553.004,4363.581z"/><g><path fill="#fff" d="M1361.128,3682.056c101.421,21.952,160.249-36.604,210.423-189.406
			c50.174-152.801,132.585-386.28,174.107-643.533c0,0,23.857-155.482-106.703-182.538
			c-130.559-27.056-155.31,36.613-179.585,112.531c-24.275,75.918-173.299,537.74-197.253,643.294
			C1238.164,3527.961,1259.707,3660.104,1361.128,3682.056z"/><path fill="#212121" d="M1399.888,3692.378c-12.541,0-25.802-1.534-39.997-4.606
			c-33.844-7.326-60.891-26.561-80.391-57.169c-32.121-50.419-40.966-130.691-23.084-209.491
			c22.056-97.191,147.776-489.109,189.089-617.898c3.505-10.927,6.316-19.689,8.296-25.882
			c12.791-40.005,25.509-74.956,51.687-97.528c29.886-25.772,72.671-31.794,134.654-18.947
			c55.747,11.552,92.679,48.119,106.803,105.748c10.512,42.889,4.743,81.768,4.492,83.401
			c-37.426,231.881-107.283,442.322-158.29,595.979c-5.655,17.036-10.997,33.128-16.041,48.491
			c-26.349,80.242-54.18,131.945-87.588,162.712c-17.704,16.304-36.824,26.679-58.454,31.718
			C1421.132,3691.219,1410.782,3692.378,1399.888,3692.378z M1362.365,3676.342c49.214,10.652,87.102,1.833,119.232-27.756
			c31.88-29.36,58.699-79.488,84.399-157.759c5.05-15.381,10.395-31.481,16.053-48.527
			c50.882-153.28,120.567-363.205,157.836-594.113c0.05-0.332,5.668-38.456-4.378-79.124
			c-13.217-53.503-46.101-86.057-97.739-96.757c-129.526-26.845-150.561,38.94-172.83,108.586
			c-1.981,6.196-4.793,14.962-8.299,25.894c-41.274,128.668-166.877,520.221-188.82,616.914
			c-17.216,75.865-8.962,152.739,21.542,200.621C1307.122,3652.197,1331.687,3669.7,1362.365,3676.342L1362.365,3676.342z"/></g><g><path fill="#212121" d="M2325.596,2579.407c-11.211-13.569-31.318-53.298-34.275-85.804
			c-7.135-78.443,76.534-110.842,67.009-168.663c-9.579-58.149-100.829-50.666-156.958-145.187
			c-19.37-32.619-25.178-57.068-30.604-84.439c-239.345,47.451-478.691,94.903-718.037,142.354
			c55.287,278.869-25.049,277.532-3.094,388.274c13.567,49.764,53.79,86.731,102.764,114.602L2325.596,2579.407z"/><path fill="#212121" d="M1552.4,2746.391c-1.007,0-2.004-0.26-2.892-0.765c-57.573-32.764-93.073-72.514-105.513-118.146
			c-0.036-0.133-0.068-0.267-0.094-0.401c-8.748-44.124-1.575-71.619,6.73-103.456c13.374-51.265,30.018-115.065-3.636-284.818
			c-0.302-1.521,0.013-3.1,0.875-4.389c0.862-1.289,2.201-2.182,3.722-2.484l718.037-142.354c1.523-0.301,3.1,0.014,4.389,0.876
			c1.289,0.862,2.182,2.201,2.483,3.722c5.438,27.427,11.092,50.924,29.896,82.591c28.541,48.062,67.034,69.342,97.963,86.44
			c29.354,16.229,54.706,30.244,59.737,60.782c4.906,29.782-12.336,52.679-30.591,76.922
			c-19.628,26.065-39.924,53.019-36.364,92.162c2.907,31.961,22.697,70.188,32.959,82.609c1.305,1.579,1.688,3.726,1.01,5.659
			c-0.678,1.933-2.319,3.37-4.324,3.788l-773.195,161.137C1553.198,2746.35,1552.798,2746.391,1552.4,2746.391z M1455.331,2624.603
			c11.507,41.947,44.486,78.864,98.05,109.765l762.177-158.84c-12.236-18.621-27.451-52.712-30.06-81.395
			c-3.969-43.634,18.683-73.715,38.668-100.255c17.432-23.15,32.487-43.143,28.395-67.987
			c-4.109-24.947-24.976-36.483-53.856-52.449c-32.167-17.783-72.199-39.914-102.359-90.704
			c-18.348-30.896-24.929-55.134-30.157-80.556l-706.596,140.086c14.339,73.795,20.374,134.185,18.442,184.463
			c-1.72,44.769-9.353,74.028-16.087,99.844C1453.69,2558.222,1447.167,2583.231,1455.331,2624.603z"/></g><g><path fill="#fff" d="M2039.242,2727.485c-2.786-110.312-3.529-155.394,157.019-164.867
			c123.58-7.292,483.842-21.322,701.387-20.551c83.134,0.295,147.33,70.693,151.969,153.698l4.259-5.33
			c4.875,87.245-62.35,161.68-149.637,165.732c-190.866,8.859-482.547,29.816-602.184,34.232
			C2138.278,2896.445,2042.029,2837.797,2039.242,2727.485z"/><path fill="#212121" d="M2279.674,2896.665c-89.111,0.001-157.813-20.494-199.575-59.738
			c-29.866-28.064-45.579-64.837-46.701-109.295c-1.406-55.671-2.422-95.895,18.414-123.887
			c21.269-28.573,63.019-42.18,144.106-46.965c125.066-7.38,486.115-21.325,701.751-20.56
			c80.092,0.283,147.122,64.632,156.857,148.403c0.378,0.042,0.756,0.122,1.129,0.241c2.309,0.737,3.923,2.823,4.059,5.243
			c2.444,43.755-12.379,85.765-41.74,118.29c-29.371,32.537-69.666,51.575-113.463,53.608
			c-95.021,4.41-212.658,11.673-326.422,18.697c-110.924,6.849-215.696,13.318-275.817,15.537
			C2294.602,2896.524,2287.066,2896.665,2279.674,2896.665z M2880.188,2547.884c-216.922,0-561.948,13.393-683.582,20.57
			c-76.208,4.496-116.706,17.14-135.415,42.273c-18.424,24.753-17.451,63.282-16.104,116.609
			c1.041,41.219,15.515,75.223,43.019,101.068c39.547,37.163,105.459,56.567,191.454,56.569c7.288,0,14.708-0.14,22.28-0.419
			c59.977-2.214,164.679-8.679,275.529-15.522c113.807-7.027,231.489-14.293,326.599-18.708
			c40.657-1.887,78.062-19.559,105.326-49.762c24.853-27.531,38.483-62.386,38.973-99.11c-0.144-0.034-0.286-0.073-0.429-0.119
			c-2.309-0.737-3.923-2.823-4.059-5.243c-4.627-82.816-68.824-147.903-146.151-148.177
			C2891.922,2547.894,2886.091,2547.884,2880.188,2547.884z"/></g><g><path fill="#fff" d="M1135.76,2858.187c143.743,213.47,306.225,461.873,365.535,552.798
			c18.843,28.887,33.499,60.437,41.669,93.944c14.238,58.392,10.374,115.454-61.14,156.31
			c-90.123,51.485-160.997,27.587-219.684-48.126c-35.952-46.384-282.055-353.597-460.324-559.393
			c-37.468-43.253-11.13-91.945,31.155-130.502c38.905-35.474,135.294-103.931,148.12-109.619
			C1034.774,2789.795,1100.752,2806.196,1135.76,2858.187z"/><path fill="#212121" d="M1390.952,3694.436c-10.981,0-21.707-1.293-32.166-3.886
			c-36.157-8.963-70.229-33.812-101.268-73.855c-30.572-39.443-276.106-346.716-460.123-559.146
			c-34.27-39.561-23.035-88.802,31.635-138.65c38.75-35.332,135.676-104.43,149.69-110.644
			c58.216-25.812,126.298-6.187,161.889,46.667c99.909,148.372,208.992,313.828,282.909,426.502c1.771,2.7,1.019,6.324-1.682,8.096
			c-2.701,1.77-6.325,1.018-8.096-1.682c-73.899-112.646-182.955-278.061-282.831-426.385
			c-32.418-48.142-94.43-66.02-147.449-42.509c-11.118,4.93-106.687,72.246-146.551,108.595
			c-22.471,20.489-37.637,41.567-43.857,60.956c-7.174,22.36-2.739,43.018,13.182,61.397
			c184.167,212.605,429.925,520.158,460.526,559.639c60.672,78.274,130.071,93.526,212.162,46.632
			c10.771-6.154,20.297-12.901,28.313-20.055c2.41-2.15,6.104-1.941,8.255,0.47c2.15,2.409,1.94,6.104-0.469,8.255
			c-8.625,7.696-18.819,14.925-30.298,21.483C1451.962,3685.031,1420.548,3694.436,1390.952,3694.436z"/></g><g><path fill="#fff" d="M2290.001,2578.243c-248.593-49.722-505.256-3.519-685.686,48.405
			c-104.771,39.215-169.147,145.022-156.35,256.157l15.606,135.525c0,0-19.015,152.877-6.941,257.732
			c12.074,104.854,96.279,478.067,96.279,478.067c40.209,135.508,237.547,63.64,425.868,36.404
			c193.381-27.969,394.604-24.514,406.555-140.135l-12.355-479.857l28.726-446.176
			C2406.196,2654.597,2358.556,2591.955,2290.001,2578.243z"/><path fill="#212121" d="M1687.304,3839.896c-7.056,0-13.925-0.21-20.611-0.657c-31.139-2.083-55.639-9.117-74.901-21.503
			c-21.407-13.766-36.375-34.606-44.486-61.943c-0.037-0.124-0.07-0.25-0.099-0.376c-0.842-3.735-84.412-374.723-96.383-478.686
			c-11.598-100.713,5.486-246.982,6.861-258.419l-15.528-134.838c-6.341-55.07,6.054-111.452,34.903-158.762
			c28.879-47.357,73.344-84.129,125.206-103.54c0.142-0.054,0.287-0.101,0.433-0.143c89.14-25.653,178.051-44.549,264.264-56.16
			c108.11-14.561,211.829-17.569,308.274-8.941c3.216,0.287,5.59,3.128,5.302,6.344c-0.288,3.217-3.131,5.584-6.344,5.303
			c-216.447-19.356-428.336,24.441-568.042,64.628c-102.26,38.382-164.909,141.123-152.379,249.934l15.606,135.524
			c0.053,0.462,0.051,0.929-0.006,1.391c-0.189,1.522-18.789,153.4-6.935,256.342c11.792,102.406,93.821,467.007,96.131,477.258
			c14.042,47.084,48.651,70.89,108.903,74.921c55.556,3.707,125.956-9.587,200.484-23.671
			c35.994-6.803,73.213-13.837,109.983-19.154c36.24-5.242,72.805-9.388,108.166-13.397
			c152.272-17.267,283.809-32.188,293.373-121.183l-12.346-479.476c-0.004-0.176-0.001-0.351,0.01-0.526l18.243-283.34
			c0.208-3.223,2.988-5.646,6.21-5.459c3.223,0.208,5.667,2.988,5.459,6.211l-18.226,283.078l12.349,479.593
			c0.006,0.251-0.003,0.502-0.029,0.752c-2.465,23.852-12.887,44.285-30.975,60.733c-16.145,14.682-38.451,26.557-68.193,36.305
			c-54.744,17.942-127.515,26.194-204.558,34.931c-35.273,3.999-71.747,8.135-107.809,13.351
			c-36.52,5.282-73.614,12.292-109.486,19.071C1803.67,3827.95,1740.456,3839.896,1687.304,3839.896z"/><path fill="#fff" d="M2398.457,3559.102c-16.968-143.347-13.99-343.698-12.881-395.048
				c0.178-8.227-2.994-16.128-8.864-21.896c-69.826-68.609-194.013-115.614-182-550.706c-0.147-9.176,0.312-18.169,1.308-26.968
				c0.939-8.295-4.973-15.743-13.286-16.513c-27.64-2.56-55.45-4.498-78.14-5.873c-8.792-0.533-16.456,5.74-17.858,14.436
				c-57.203,354.787-304.814,530.643-322.993,535.438c-14.187,3.744-185.334-77.196-124.032-474.824
				c1.074-6.969-5.848-12.482-12.332-9.71c-29.347,12.546-65.909,25.76-83.684,35.148c-5.703,3.012-10.321,7.733-13.035,13.583
				c-64.013,137.982-72.731,360.827-72.731,360.827c0.101,0.87,0.104,1.72,0.003,2.586c-2.136,18.09-57.233,157.148-45.951,255.092
				c3.029,26.328,42.826,73.517,52.999,126.62c7.426,38.767,36.645,134.124,32.865,261.442
				c-3.68,123.967-137.301,332.859-144.333,706.904c-0.317,16.838,13.271,30.702,30.112,30.702H2540.84
				c17.505,0,31.328-14.931,30.005-32.385C2524.927,3762.057,2417.727,3721.896,2398.457,3559.102z"/><path fill="#212121" d="M2540.84,4406.19H1383.624c-9.721,0-18.832-3.828-25.654-10.779
				c-6.827-6.957-10.486-16.147-10.304-25.879c4.509-239.814,60.778-411.731,101.864-537.26
				c23-70.271,41.167-125.773,42.471-169.708c3.087-103.999-15.759-185.468-27.02-234.145c-2.364-10.219-4.406-19.044-5.743-26.023
				c-5.553-28.988-20.068-55.911-32.875-79.665c-10.054-18.647-18.737-34.752-20.191-47.388
				c-8.896-77.227,22.852-179.7,38.108-228.946c4.151-13.397,7.429-23.98,7.845-27.5c0.047-0.401,0.046-0.793-0.004-1.226
				c-0.035-0.3-0.046-0.602-0.035-0.903c0.022-0.561,2.308-56.84,12.412-129.25c9.345-66.96,27.488-161.879,60.857-233.81
				c3.189-6.874,8.732-12.661,15.608-16.293c11.369-6.005,29.88-13.394,49.479-21.217c11.638-4.646,23.672-9.449,34.638-14.137
				c4.989-2.134,10.527-1.421,14.816,1.906c4.276,3.317,6.419,8.709,5.592,14.07c-41.062,266.338,23.662,384.97,65.897,431.979
				c24.974,27.796,46.695,36.182,51.086,36.23c8.874-2.994,73.792-47.273,144-134.942
				c63.226-78.949,144.821-211.688,174.491-395.703c1.893-11.74,12.197-20.044,23.984-19.341
				c28.346,1.718,54.698,3.698,78.326,5.887c5.547,0.514,10.533,3.171,14.04,7.482c3.551,4.364,5.155,9.873,4.517,15.51
				c-0.984,8.687-1.412,17.507-1.272,26.217c0.001,0.085,0.001,0.17-0.001,0.255c-10.5,380.347,83.973,462.082,152.955,521.762
				c9.681,8.376,18.825,16.287,27.298,24.612c6.956,6.835,10.824,16.381,10.611,26.192c-1.225,56.688-3.918,252.649,12.841,394.234
				c6.179,52.197,21.635,91.891,41.203,142.145c20.31,52.157,45.586,117.069,69.396,219.542
				c27.868,119.937,48.087,266.287,61.814,447.417c0.753,9.942-2.707,19.843-9.494,27.164
				C2560.4,4401.995,2550.799,4406.19,2540.84,4406.19z M1463.789,3016.827c0.102,1.158,0.085,2.286-0.048,3.434
				c-0.542,4.593-3.624,14.54-8.289,29.598c-15.02,48.482-46.275,149.367-37.662,224.148c1.197,10.402,9.386,25.59,18.867,43.176
				c12.553,23.282,28.175,52.259,34.066,83.013c1.295,6.762,3.314,15.486,5.651,25.59c11.388,49.227,30.448,131.616,27.316,237.127
				c-1.354,45.62-19.752,101.831-43.046,172.997c-40.856,124.826-96.81,295.78-101.286,533.844
				c-0.124,6.566,2.348,12.77,6.958,17.468c4.605,4.692,10.751,7.276,17.308,7.276H2540.84c6.814,0,13.124-2.758,17.767-7.766
				c4.648-5.015,6.925-11.524,6.409-18.331c-30.921-408.009-88.444-555.734-130.446-663.599
				c-19.87-51.029-35.565-91.336-41.919-145.013c-16.848-142.338-14.148-338.982-12.919-395.861
				c0.143-6.601-2.451-13.016-7.116-17.599c-8.209-8.066-17.217-15.859-26.754-24.11c-34.619-29.951-77.704-67.227-109.483-144.585
				c-36.672-89.269-52.214-215.603-47.513-386.218c-0.142-9.168,0.312-18.449,1.347-27.59c0.282-2.488-0.417-4.909-1.969-6.815
				c-1.507-1.854-3.655-2.996-6.047-3.218c-23.504-2.177-49.732-4.148-77.955-5.858c-5.757-0.349-10.8,3.748-11.732,9.53
				c-13.192,81.822-37.597,160.632-72.535,234.24c-28.388,59.809-63.65,116.147-104.808,167.453
				c-70.369,87.72-138.052,135.334-149.932,138.467c-7.605,2.004-27.701-6.938-48.187-25.378
				c-24.234-21.812-57.426-63.795-77.934-139.927c-22.75-84.457-24.493-190.796-5.18-316.062c0.263-1.706-0.754-2.701-1.204-3.05
				c-0.527-0.409-1.624-1.007-3.051-0.394c-11.096,4.743-23.197,9.573-34.9,14.245c-19.302,7.704-37.533,14.981-48.352,20.696
				c-4.694,2.479-8.312,6.24-10.462,10.875C1474.457,2791.212,1464.257,3006.112,1463.789,3016.827z"/><path fill="#212121" d="M2023.277,3317.795c-21.951,0-43.365-1.572-64.058-4.716c-3.192-0.484-5.387-3.466-4.902-6.658
				c0.484-3.192,3.464-5.382,6.658-4.902c36.352,5.522,76.711,6.007,116.715,1.398c60.048-6.914,116.768-24.896,159.711-50.632
				c2.768-1.661,6.36-0.761,8.021,2.009c1.66,2.77,0.76,6.361-2.01,8.021c-44.339,26.574-102.719,45.119-164.384,52.22
				C2060.143,3316.709,2041.524,3317.795,2023.277,3317.795z"/><path fill="#212121" d="M1495.119,3380.921c-3.076,0-5.654-2.402-5.832-5.513c-0.184-3.225,2.28-5.987,5.504-6.171
				c9.181-0.525,18.526-1.331,27.774-2.396c63.383-7.299,122.366-26.68,166.083-54.572c2.723-1.737,6.337-0.938,8.074,1.784
				c1.737,2.722,0.938,6.337-1.784,8.073c-45.184,28.828-105.925,48.834-171.036,56.332c-9.47,1.09-19.041,1.915-28.445,2.452
				C1495.345,3380.918,1495.231,3380.921,1495.119,3380.921z"/><path fill="#212121" d="M1887.562,4378.089c-0.016,0-0.032,0-0.048,0c-3.229-0.026-5.826-2.665-5.799-5.895
				c3.214-395.716-31.828-571.327-65.716-741.156c-25.375-127.169-51.615-258.667-60.349-480.883
				c-0.126-3.227,2.386-5.944,5.613-6.071c3.223-0.104,5.945,2.386,6.072,5.612c8.698,221.293,33.681,346.497,60.131,479.054
				c34.004,170.409,69.166,346.621,65.942,743.54C1893.381,4375.502,1890.769,4378.089,1887.562,4378.089z"/><path fill="#212121" d="M1852.621,3259.052c-22.71,0-41.187-18.477-41.187-41.187c0-22.711,18.477-41.188,41.187-41.188
				s41.187,18.477,41.187,41.188C1893.808,3240.575,1875.331,3259.052,1852.621,3259.052z M1852.621,3188.371
				c-16.263,0-29.494,13.231-29.494,29.494s13.231,29.493,29.494,29.493s29.494-13.23,29.494-29.493
				S1868.883,3188.371,1852.621,3188.371z"/><path fill="#212121" d="M1869.804,3442.482c-22.71,0-41.187-18.477-41.187-41.187c0-22.711,18.477-41.188,41.187-41.188
				s41.187,18.477,41.187,41.188C1910.99,3424.006,1892.514,3442.482,1869.804,3442.482z M1869.804,3371.802
				c-16.263,0-29.494,13.231-29.494,29.494s13.231,29.493,29.494,29.493s29.493-13.23,29.493-29.493
				S1886.066,3371.802,1869.804,3371.802z"/><path fill="#212121" d="M1893.654,3590.043c-22.71,0-41.187-18.477-41.187-41.187c0-22.711,18.477-41.188,41.187-41.188
				s41.187,18.477,41.187,41.188C1934.841,3571.566,1916.365,3590.043,1893.654,3590.043z M1893.654,3519.362
				c-16.263,0-29.494,13.231-29.494,29.494s13.231,29.493,29.494,29.493s29.494-13.23,29.494-29.493
				S1909.917,3519.362,1893.654,3519.362z"/><path fill="#212121" d="M1920.134,3724.77c-22.71,0-41.187-18.477-41.187-41.187s18.476-41.187,41.187-41.187
				s41.187,18.477,41.187,41.187S1942.844,3724.77,1920.134,3724.77z M1920.134,3654.09c-16.263,0-29.493,13.23-29.493,29.493
				s13.23,29.493,29.493,29.493s29.494-13.23,29.494-29.493S1936.396,3654.09,1920.134,3654.09z"/><path fill="#212121" d="M1945.204,3869.699c-22.71,0-41.187-18.477-41.187-41.187c0-22.711,18.477-41.188,41.187-41.188
				s41.187,18.477,41.187,41.188C1986.391,3851.223,1967.915,3869.699,1945.204,3869.699z M1945.204,3799.019
				c-16.263,0-29.494,13.231-29.494,29.494s13.231,29.493,29.494,29.493s29.494-13.23,29.494-29.493
				S1961.467,3799.019,1945.204,3799.019z"/><path fill="#212121" d="M1964.826,4047.867c-22.71,0-41.187-18.477-41.187-41.187c0-22.711,18.477-41.188,41.187-41.188
				s41.187,18.477,41.187,41.188C2006.013,4029.391,1987.537,4047.867,1964.826,4047.867z M1964.826,3977.187
				c-16.263,0-29.494,13.231-29.494,29.494s13.231,29.493,29.494,29.493s29.494-13.23,29.494-29.493
				S1981.089,3977.187,1964.826,3977.187z"/><path fill="#212121" d="M1974.961,4282.311c-22.71,0-41.187-18.477-41.187-41.187c0-22.711,18.477-41.188,41.187-41.188
				s41.187,18.477,41.187,41.188C2016.148,4263.834,1997.671,4282.311,1974.961,4282.311z M1974.961,4211.63
				c-16.263,0-29.494,13.231-29.494,29.494s13.231,29.493,29.494,29.493s29.494-13.23,29.494-29.493
				S1991.224,4211.63,1974.961,4211.63z"/><path fill="#212121" d="M2302.052,2896.245c-3.129,0-5.723-2.478-5.839-5.631c-0.119-3.228,2.4-5.939,5.627-6.059
			c11.352-0.419,38.802-1.882,65.349-3.296c21.446-1.144,43.623-2.325,56.769-2.926c3.24-0.129,5.96,2.349,6.107,5.574
			s-2.349,5.96-5.574,6.107c-13.103,0.599-35.256,1.778-56.68,2.921c-26.593,1.417-54.092,2.883-65.54,3.305
			C2302.198,2896.244,2302.125,2896.245,2302.052,2896.245z"/></g><g><path fill="#212121" d="M1538.846,1912.193l-30.189,5.985c-63.378,12.565-104.57,74.129-92.005,137.507l36.079,181.983
				l144.945-28.736L1538.846,1912.193z"/><path fill="#212121" d="M1452.724,2243.516c-2.734,0-5.177-1.927-5.729-4.71l-36.079-181.983
				c-6.381-32.185,0.154-64.927,18.399-92.197c18.246-27.27,46.02-45.802,78.204-52.182l30.189-5.985
				c1.522-0.301,3.1,0.013,4.389,0.875s2.182,2.201,2.483,3.722l58.83,296.739c0.302,1.521-0.013,3.1-0.875,4.389
				c-0.862,1.289-2.201,2.182-3.722,2.483l-144.945,28.736C1453.484,2243.479,1453.101,2243.516,1452.724,2243.516z
				 M1534.248,1919.065l-24.454,4.848c-29.121,5.773-54.25,22.542-70.759,47.215c-16.509,24.674-22.421,54.3-16.648,83.42
				l34.942,176.248l133.475-26.462L1534.248,1919.065z"/><path fill="#212121" d="M2171.019,2095.264l-596.222,118.204l-51.924-261.908
				c-15.342-77.384,30.302-153.861,105.737-176.951c47.325-14.486,104.43-29.874,166.24-42.128
				c10.368-2.056,20.606-3.971,30.688-5.755c146.44-25.916,286.5,71.034,315.421,216.91L2171.019,2095.264z"/><path fill="#212121" d="M1574.796,2219.314c-1.149,0-2.282-0.339-3.251-0.987c-1.289-0.862-2.182-2.201-2.483-3.722
				l-51.924-261.908c-7.704-38.856-0.763-78.977,19.542-112.971c20.313-34.007,52.354-59.118,90.218-70.708
				c56.614-17.329,112.739-31.552,166.814-42.272c10.13-2.009,20.495-3.953,30.807-5.778c72.266-12.79,145.467,3.184,206.117,44.976
				c60.54,41.716,101.757,104.418,116.058,176.555l30.061,151.628c0.628,3.167-1.431,6.244-4.598,6.873l-596.222,118.203
				C1575.556,2219.278,1575.175,2219.314,1574.796,2219.314z M1872.289,1728.459c-15.116,0-30.399,1.31-45.732,4.023
				c-10.233,1.811-20.519,3.74-30.57,5.733c-53.69,10.645-109.428,24.77-165.666,41.984
				c-72.807,22.286-116.534,95.465-101.713,170.223l50.788,256.173l584.752-115.93l-28.923-145.893
				C2110.077,1817.936,1997.173,1728.459,1872.289,1728.459z"/><g><polyline fill="#fff" points="1775.497 2649.354 1744.087 2490.922 1953.744 2449.356 1986.996 2617.082"/><path fill="#212121" d="M1775.491,2655.201c-2.734,0-5.177-1.927-5.729-4.711l-31.41-158.432
					c-0.628-3.167,1.431-6.244,4.598-6.872l209.656-41.565c1.523-0.298,3.1,0.014,4.389,0.876s2.182,2.201,2.483,3.723
					l33.252,167.726c0.628,3.167-1.431,6.244-4.598,6.872c-3.166,0.63-6.244-1.431-6.872-4.599l-32.116-161.99l-198.186,39.291
					l30.272,152.697c0.628,3.167-1.431,6.244-4.598,6.872C1776.25,2655.165,1775.868,2655.201,1775.491,2655.201z"/><path fill="#fff" d="M1924.128,2491.544c-65.734,26.748-136.876,40.622-204.657,41.516
					c-83.456,1.1-155.706-57.81-171.889-139.688l-46.815-236.861c-18.556-93.883,42.509-185.033,136.393-203.589l140.487-27.767
					c93.883-18.556,185.033,42.51,203.589,136.393l46.693,236.246C2043.952,2378.864,2000.672,2460.396,1924.128,2491.544z"/><path fill="#212121" d="M1717.168,2538.922c-85.204,0.007-158.713-60.385-175.322-144.417l-46.814-236.861
					c-9.277-46.938,0.28-94.68,26.91-134.43c26.63-39.75,67.146-66.751,114.084-76.028l140.487-27.767
					c46.94-9.275,94.68,0.279,134.43,26.91c39.75,26.63,66.751,67.146,76.028,114.084l46.693,236.246
					c16.602,83.999-28.539,168.237-107.333,200.299l0,0c-65.167,26.518-136.671,41.022-206.784,41.947
					C1718.759,2538.916,1717.955,2538.922,1717.168,2538.922z M1811.592,1927.662c-10.9,0-21.878,1.067-32.812,3.229
					l-140.487,27.767c-43.874,8.671-81.746,33.91-106.637,71.065c-24.892,37.155-33.825,81.78-25.153,125.654l46.814,236.861
					c15.668,79.272,85.532,136.05,166.076,134.976c68.668-0.904,138.702-15.111,202.531-41.084l2.204,5.415l-2.204-5.415
					c73.618-29.957,115.787-108.687,100.269-187.202l-46.693-236.246c-8.671-43.875-33.909-81.745-71.064-106.637
					C1876.539,1937.355,1844.43,1927.662,1811.592,1927.662z"/><path fill="#fff" d="M1903.994,2499.276c-47.786,17.284-97.889,27.961-147.09,31.995"/><path fill="#212121" d="M1756.897,2537.117c-3.013,0-5.57-2.313-5.821-5.369c-0.264-3.218,2.131-6.041,5.35-6.305
						c49.79-4.081,98.77-14.735,145.579-31.665c3.036-1.098,6.389,0.474,7.487,3.51s-0.473,6.388-3.509,7.486
						c-47.783,17.282-97.779,28.157-148.601,32.323C1757.219,2537.111,1757.058,2537.117,1756.897,2537.117z"/><path fill="#fff" d="M1954.495,2475.476c-7.005,4.664-14.418,8.851-22.209,12.501"/><path fill="#212121" d="M1932.29,2493.824c-2.198,0-4.304-1.245-5.298-3.367c-1.37-2.924-0.11-6.405,2.814-7.774
						c7.427-3.48,14.644-7.542,21.449-12.073c2.688-1.792,6.317-1.062,8.107,1.626s1.062,6.317-1.626,8.106
						c-7.288,4.854-15.016,9.203-22.969,12.929C1933.964,2493.646,1933.12,2493.824,1932.29,2493.824z"/><g><path fill="#fff" d="M2007.472,2264.536l60.615-12.368c45.661-9.025,75.37-53.37,66.345-99.031
						c-9.025-45.662-53.365-75.347-99.027-66.322l-60.616,12.368"/><path fill="#212121" d="M2007.465,2270.383c-2.721,0-5.157-1.909-5.722-4.679c-0.646-3.164,1.396-6.252,4.56-6.897
						l60.615-12.367c20.587-4.069,38.329-15.894,49.992-33.303c11.663-17.409,15.849-38.314,11.787-58.866
						c-4.062-20.55-15.885-38.287-33.292-49.944c-17.406-11.656-38.312-15.839-58.865-11.775l-60.581,12.36
						c-3.164,0.648-6.251-1.396-6.897-4.56c-0.646-3.164,1.396-6.252,4.56-6.897l60.616-12.367
						c23.654-4.677,47.673,0.13,67.674,13.524c20.003,13.395,33.589,33.778,38.257,57.393c4.667,23.616-0.142,47.639-13.543,67.643
						c-13.401,20.003-33.788,33.59-57.404,38.258l-60.58,12.36C2008.246,2270.345,2007.853,2270.383,2007.465,2270.383z"/><path fill="#212121" d="M2052.802,2219.532c-2.735,0-5.179-1.929-5.729-4.714c-0.626-3.168,1.435-6.243,4.603-6.869
					l7.384-1.459c9.867-1.95,18.394-7.641,24.01-16.023c5.616-8.382,7.634-18.433,5.684-28.3
					c-1.949-9.86-7.638-18.381-16.019-23.993c-8.383-5.612-18.434-7.629-28.3-5.678l-7.384,1.459
					c-3.166,0.629-6.243-1.434-6.87-4.602c-0.626-3.168,1.435-6.243,4.602-6.87l7.384-1.459c12.931-2.556,26.097,0.084,37.073,7.433
					c10.978,7.35,18.43,18.516,20.985,31.442c5.284,26.732-12.166,52.779-38.898,58.063l-7.384,1.459
					C2053.56,2219.496,2053.178,2219.532,2052.802,2219.532z"/></g><g><circle cx="1633.545" cy="2232.949" r="32.57" fill="#212121"/><path fill="#212121" d="M1859.182,2176.383c4.094,17.515-6.787,35.033-24.303,39.127
						c-17.516,4.093-35.034-6.787-39.127-24.303c-4.094-17.516,6.787-35.033,24.303-39.127
						C1837.57,2147.987,1855.088,2158.867,1859.182,2176.383z"/><path fill="#212121" d="M1730.028,2344.68c-1.082,0-2.151-0.3-3.085-0.88c-1.317-0.818-2.255-2.126-2.608-3.636
					c-13.141-56.229-6.201-110.531-5.899-112.815c0.423-3.201,3.361-5.449,6.561-5.03c3.201,0.422,5.454,3.359,5.032,6.56
					c-0.068,0.521-6.47,50.806,4.43,102.915l34.533-8.071c3.145-0.734,6.289,1.219,7.024,4.363c0.735,3.145-1.218,6.289-4.363,7.024
					l-40.293,9.417C1730.919,2344.629,1730.473,2344.68,1730.028,2344.68z"/><path fill="#212121" d="M1837.949,2377.314c5.207,19.083-8.311,39.393-30.193,45.364
					c-21.883,5.971-43.843-4.658-49.05-23.741c-5.207-19.082,8.311-39.392,30.194-45.363
					C1810.781,2347.603,1832.742,2358.232,1837.949,2377.314z"/><path fill="#212121" d="M1870.824,2283.016c-0.439,0-0.886-0.05-1.333-0.154c-3.145-0.733-5.099-3.877-4.366-7.022
							l8.377-35.921c0.733-3.144,3.871-5.102,7.022-4.366c3.145,0.733,5.099,3.877,4.366,7.022l-8.377,35.921
							C1875.884,2281.193,1873.48,2283.016,1870.824,2283.016z"/><path fill="#212121" d="M1890.72,2278.365c-0.439,0-0.886-0.05-1.333-0.154c-3.145-0.733-5.1-3.877-4.366-7.021
							l8.377-35.92c0.733-3.144,3.874-5.103,7.021-4.366c3.145,0.733,5.1,3.877,4.366,7.021l-8.377,35.92
							C1895.78,2276.543,1893.376,2278.365,1890.72,2278.365z"/><path fill="#212121" d="M1910.615,2273.716c-0.439,0-0.886-0.05-1.333-0.154c-3.145-0.733-5.099-3.877-4.366-7.022
							l8.377-35.921c0.733-3.144,3.873-5.103,7.022-4.366c3.145,0.733,5.099,3.877,4.366,7.022l-8.377,35.921
							C1915.675,2271.894,1913.271,2273.716,1910.615,2273.716z"/><g><path fill="#212121" d="M1651.414,2339.415c-1.688,0-3.363-0.727-4.519-2.133l-23.43-28.488
							c-2.051-2.494-1.692-6.178,0.802-8.229s6.178-1.693,8.229,0.802l23.43,28.488c2.051,2.494,1.692,6.178-0.802,8.229
							C1654.036,2338.979,1652.721,2339.415,1651.414,2339.415z"/><path fill="#212121" d="M1631.518,2344.064c-1.688,0-3.363-0.727-4.519-2.133l-23.43-28.487
							c-2.051-2.494-1.692-6.178,0.802-8.229c2.494-2.051,6.178-1.693,8.229,0.802l23.43,28.487
							c2.051,2.494,1.692,6.178-0.802,8.229C1634.14,2343.628,1632.825,2344.064,1631.518,2344.064z"/><path fill="#212121" d="M1611.623,2348.715c-1.688,0-3.363-0.727-4.519-2.133l-23.43-28.488
							c-2.051-2.494-1.692-6.178,0.802-8.229s6.178-1.692,8.229,0.802l23.43,28.488c2.051,2.494,1.692,6.178-0.802,8.229
							C1614.245,2348.279,1612.93,2348.715,1611.623,2348.715z"/></g><g><path fill="#212121" d="M1664.424,2183.816l-98.56-1.361c-11.93-0.165-21.469-9.97-21.304-21.9
						c0.165-11.931,9.97-21.469,21.901-21.304l98.56,1.361c11.931,0.165,21.468,9.97,21.304,21.9
						C1686.16,2174.443,1676.355,2183.981,1664.424,2183.816z"/></g><g><path fill="#212121" d="M1864.666,2134.936l-95.548,24.219c-11.565,2.932-23.318-4.068-26.25-15.634
						c-2.932-11.566,4.068-23.319,15.634-26.25l95.548-24.219c11.566-2.932,23.318,4.068,26.25,15.634
						C1883.231,2120.252,1876.232,2132.005,1864.666,2134.936z"/></g><g><path fill="#fff" d="M1754.748,2421.525c-6.098,1.791-11.991-3.316-11.14-9.614
						c2.542-18.827,21.654-37.584,48.499-45.469c26.812-7.875,53.026-2.429,65.344,12.034c4.121,4.838,1.925,12.32-4.173,14.111
						L1754.748,2421.525z"/><path fill="#212121" d="M1752.267,2427.731c-3.435,0-6.796-1.219-9.483-3.526c-3.779-3.246-5.637-8.134-4.97-13.076
						c2.929-21.696,24.086-41.908,52.646-50.296c28.536-8.381,57.247-2.815,71.442,13.852c3.233,3.796,4.313,8.913,2.89,13.687
						c-1.418,4.754-5.106,8.427-9.866,9.825l-98.53,28.938C1755.034,2427.535,1753.645,2427.731,1752.267,2427.731z
						 M1816.565,2368.7c-7.35,0-15.108,1.09-22.811,3.353c-23.828,6.998-42.066,23.71-44.353,40.641
						c-0.194,1.441,0.635,2.327,1.001,2.642c0.445,0.382,1.386,0.966,2.698,0.581l0,0l98.53-28.939
						c1.311-0.385,1.787-1.385,1.955-1.947c0.138-0.462,0.356-1.656-0.586-2.763C1845.506,2373.469,1831.932,2368.7,1816.565,2368.7
						z"/></g></g><path fill="#fff" d="M2089.45,2331.912c-17.223,0-32.659-12.163-36.139-29.682
				c-3.943-19.932,9.055-39.36,28.985-43.311c19.896-3.943,39.35,9.052,43.306,28.977c1.914,9.654-0.047,19.477-5.521,27.656
				c-5.468,8.182-13.804,13.74-23.457,15.653C2094.219,2331.682,2091.814,2331.912,2089.45,2331.912z M2089.463,2269.907
				c-1.612,0-3.251,0.156-4.897,0.482c-13.602,2.697-22.476,15.962-19.782,29.568c2.7,13.602,15.987,22.478,29.569,19.779
				c6.59-1.306,12.272-5.102,16.014-10.685c3.735-5.584,5.072-12.288,3.762-18.877
				C2111.758,2278.211,2101.219,2269.907,2089.463,2269.907z"/><g><path fill="#212121" d="M1539.336,2001.817c0,0,144.41,69.201,237.84,50.678
					c93.431-18.523,234.461-46.483,234.461-46.483s-109.082-131.511-258.584-101.872
					C1603.55,1933.78,1539.336,2001.817,1539.336,2001.817z"/><path fill="#212121" d="M1741.995,2061.529c-33.795,0-74.147-7.303-120.524-21.848
					c-47.63-14.937-84.296-32.417-84.661-32.591c-1.684-0.807-2.881-2.369-3.222-4.205c-0.341-1.835,0.215-3.723,1.497-5.081
					c0.678-0.719,17.015-17.841,52.053-38.732c32.093-19.135,86.732-45.193,164.779-60.666c34.974-6.935,70.667-5.759,106.089,3.491
					c28.235,7.374,56.341,19.866,83.537,37.128c46.205,29.33,73.458,61.883,74.595,63.255c1.316,1.586,1.699,3.748,1.009,5.689
					c-0.689,1.942-2.351,3.377-4.372,3.778l-234.46,46.482C1767.218,2060.43,1755.095,2061.529,1741.995,2061.529z
					 M1549.707,2000.115c31.163,13.812,148.151,62.144,226.332,46.646l224.335-44.475c-10.696-11.267-33.61-33.447-65.404-53.581
					c-40.966-25.941-105.585-53.735-180.78-38.829C1633.477,1933.807,1568.828,1983.315,1549.707,2000.115z"/></g></g></g><g><path fill="#fff" d="M2986.152,2832.124c72.667-45.263,94.273-141.188,48.049-213.248
				c-165.935-258.684-499.794-789.072-507.337-797.743c-56.133-77.583-125.23-58.956-209.202-2.85
				c-95.103,63.547-181.087,172.526-132.76,237.262c61.171,102.043,432.155,543.781,602.907,745.49
				C2837.046,2859.199,2921.467,2872.415,2986.152,2832.124z"/><path fill="#212121" d="M2843.937,2865.021c-3.067,0-5.643-2.392-5.83-5.494c-0.194-3.224,2.261-5.994,5.483-6.188
				c7.326-0.442,14.172-0.835,20.601-1.203c60.271-3.455,82.859-4.749,118.98-25.042c33.742-21.058,57.138-54.015,65.883-92.815
				c8.757-38.852,1.734-78.715-19.773-112.244c-83.396-130.009-211.632-332.477-314.673-495.163
				c-100.467-158.623-187.247-295.638-192.208-301.962c-0.096-0.113-0.187-0.229-0.273-0.349
				c-25.347-35.033-54.483-51.1-89.093-49.148c-30.329,1.719-65.958,16.887-112.124,47.732
				c-63.4,42.363-132.111,112.676-142.698,174.261c-3.653,21.253,0.174,39.638,11.375,54.642c0.118,0.158,0.228,0.322,0.33,0.491
				c48.672,81.191,292.724,376.623,488.887,610.163c2.077,2.473,1.757,6.161-0.716,8.237c-2.473,2.079-6.16,1.757-8.237-0.716
				c-196.232-233.622-440.391-529.212-489.812-611.421c-13.058-17.629-17.549-38.95-13.35-63.377
				c5.045-29.353,22.877-62.86,51.566-96.899c25.943-30.782,60.093-61.005,96.16-85.104c47.975-32.054,85.457-47.842,117.958-49.685
				c38.898-2.198,71.358,15.448,99.229,53.968l-0.001,0c6.304,8.394,71.201,110.783,192.887,302.908
				c103.032,162.674,231.26,365.126,314.636,495.105c23.211,36.185,30.789,79.202,21.339,121.13
				c-9.448,41.919-34.74,77.518-71.219,100.238c-0.073,0.046-0.148,0.09-0.225,0.133c-38.546,21.682-63.608,23.119-124.158,26.589
				c-6.417,0.368-13.252,0.76-20.564,1.201C2844.175,2865.018,2844.056,2865.021,2843.937,2865.021z"/><path fill="#fff" d="M2219.825,2110.537c0,0,53.742,25.16,90.688,9.287c36.946-15.873,230.048-94.527,254.269-195.977
				c24.22-101.449-115.186-335.889-255.805-390.459l-76.017,75.66c-67.753,30.92-160.692,37.332-166.989,96.549
				C2055.264,1806.291,2219.825,2110.537,2219.825,2110.537z"/><path fill="#212121" d="M2219.83,2116.385c-2.078,0-4.089-1.11-5.147-3.066c-0.413-0.763-41.699-77.268-81.133-165.097
				c-53.25-118.602-77.943-200.441-73.392-243.244c4.887-45.955,55.4-62.022,108.879-79.034
				c20.452-6.506,41.591-13.23,60.546-21.785l75.269-74.916c1.639-1.631,4.085-2.143,6.24-1.307
				c65.325,25.351,137.304,92.631,192.544,179.976c53.156,84.05,78.766,167.312,66.833,217.292
				c-1.87,7.833-4.77,15.801-8.619,23.679c-1.417,2.901-4.919,4.104-7.819,2.687c-2.901-1.417-4.104-4.918-2.687-7.82
				c3.473-7.108,6.08-14.262,7.752-21.262c5.558-23.28,2.148-55.438-9.859-92.997c-11.676-36.518-30.861-76.398-55.483-115.33
				c-52.949-83.723-121.231-148.409-183.375-173.921l-73.293,72.95c-0.492,0.489-1.066,0.887-1.697,1.175
				c-19.838,9.053-41.681,16.001-62.806,22.721c-49.738,15.821-96.717,30.765-100.796,69.127
				c-10.396,97.76,151.545,398.515,153.182,401.541c1.536,2.84,0.479,6.388-2.361,7.924
				C2221.722,2116.158,2220.769,2116.385,2219.83,2116.385z"/><path fill="#fff" d="M1845.016,1827.873l-24.134,42.016c-12.602,21.937-5.53,49.915,15.982,63.23
				c0,0,194.633,103.348,285.101,162.195c90.468,58.847,162.879,9.252,162.879,9.252c90.28-60.359,29.149-219.465-41.528-247.205
				c-42.138-16.536-99.651-9.796-145.297,14.622l-149.724-75.708C1910.92,1777.96,1865.742,1791.78,1845.016,1827.873z"/><path fill="#212121" d="M2213.002,2129.909c-25.958,0-58.752-6.62-94.225-29.694
				c-89.215-58.032-282.711-160.899-284.656-161.932c-0.114-0.061-0.226-0.125-0.335-0.193
				c-24.334-15.063-32.229-46.3-17.974-71.114l24.134-42.015c22.186-38.636,70.908-53.545,110.922-33.938l147.1,74.381
				c47.854-24.667,105.417-29.995,147.483-13.487c26.969,10.585,53.575,39.548,71.171,77.476c1.359,2.929,0.086,6.405-2.843,7.764
				c-2.929,1.357-6.405,0.086-7.764-2.843c-16.361-35.265-40.599-61.998-64.836-71.511c-39.809-15.622-94.92-9.995-140.403,14.334
				c-1.682,0.898-3.695,0.922-5.396,0.062l-149.723-75.708c-34.433-16.872-76.441-4.02-95.571,29.293l-24.135,42.016
				c-11.064,19.258-4.983,43.488,13.831,55.249c6.868,3.652,196.904,104.818,285.371,162.364
				c36.246,23.577,73.656,32.27,111.189,25.832c27.829-4.771,45.028-16.386,45.198-16.502c2.664-1.825,6.303-1.144,8.127,1.52
				c1.825,2.664,1.144,6.303-1.52,8.127c-0.782,0.536-19.506,13.181-49.83,18.38
				C2230.91,2129.041,2222.402,2129.909,2213.002,2129.909z"/><path fill="#212121" d="M1919.388,1957.808c-7.751,0-15.346-2.216-22.064-6.53l-17.147-11.009
				c-2.718-1.745-3.506-5.361-1.762-8.079c1.745-2.718,5.362-3.506,8.079-1.762l17.149,11.01c6.847,4.397,14.969,5.746,22.871,3.803
				c7.901-1.944,14.468-6.908,18.493-13.979c7.716-13.558,3.478-30.781-9.649-39.21c-18.651-11.977-37.542-24.104-47.497-30.49
				c-2.718-1.744-3.507-5.36-1.764-8.078c1.745-2.718,5.36-3.506,8.078-1.764c9.955,6.387,28.848,18.515,47.5,30.492
				c18.357,11.788,24.284,35.874,13.493,54.834c-5.628,9.888-14.813,16.831-25.861,19.549
				C1926.01,1957.407,1922.684,1957.808,1919.388,1957.808z"/><path fill="#fff" d="M2158.532,1768.45l-287.388,5.803c-39.481,0.745-72.09-30.657-72.835-70.138l-1.178-62.445
					c-0.364-19.305,14.991-35.25,34.296-35.615l323.92-6.492c19.305-0.364,35.25,14.991,35.614,34.296l1.867,98.976
					C2193.192,1752.14,2177.837,1768.086,2158.532,1768.45z"/><path fill="#212121" d="M1869.781,1780.112c-41.987,0-76.523-33.738-77.318-75.887l-1.178-62.444
					c-0.424-22.498,17.534-41.146,40.031-41.571l323.913-6.492c22.473-0.418,41.153,17.534,41.577,40.031l1.867,98.976
					c0.205,10.898-3.846,21.225-11.406,29.076c-7.561,7.852-17.727,12.289-28.625,12.494l-287.381,5.803
					C1870.77,1780.108,1870.271,1780.112,1869.781,1780.112z M2156.013,1605.404c-0.185,0-0.37,0.002-0.556,0.005l-323.913,6.492
					c-16.058,0.303-28.87,13.608-28.567,29.659l1.178,62.444c0.675,35.775,29.993,64.415,65.623,64.415
					c0.418,0,0.837-0.004,1.256-0.012l287.381-5.803c0.003,0,0.005,0,0.008,0c7.775-0.146,15.028-3.312,20.423-8.914
					c5.394-5.602,8.284-12.969,8.138-20.744l-1.867-98.976C2184.816,1618.105,2171.814,1605.404,2156.013,1605.404z"/><path fill="#212121" d="M1886.099,1664.712c-0.163,0-0.326-0.001-0.489-0.003c-29.509-0.449-50.075-0.75-50.076-0.75
				c-3.229-0.047-5.808-2.703-5.761-5.932c0.047-3.2,2.655-5.761,5.844-5.761c0.029,0,0.059,0,0.087,0c0,0,20.569,0.301,50.083,0.75
				c5.847,0.115,11.295-2.189,15.343-6.415c4.035-4.212,6.07-9.732,5.731-15.542c-0.188-3.223,2.273-5.989,5.497-6.177
				c3.217-0.188,5.989,2.273,6.177,5.497c0.522,8.959-2.743,17.821-8.96,24.311
				C1903.458,1661.076,1894.926,1664.712,1886.099,1664.712z"/><path fill="#fff" d="M2197.563,1510.201c0,0-123.721,60.175-150.044,74.5c-26.322,14.325-30.553,24.159-26.877,43.113
				l47.382,244.257c3.672,18.957,22.021,31.34,40.977,27.663l61.311-11.891c38.769-7.521,64.094-45.04,56.578-83.807
				l-21.319-109.909l70.474-37.869c11.847-6.365,16.289-21.129,9.924-32.976l-55.43-103.158
				C2224.176,1508.278,2209.409,1503.834,2197.563,1510.201z"/><path fill="#212121" d="M2102.257,1906.233c-8.054,0-15.923-2.391-22.747-6.997c-9.036-6.099-15.153-15.352-17.226-26.053
				l-47.382-244.256c-4.401-22.687,2.845-34.681,29.821-49.361c25.984-14.142,143.818-71.479,150.18-74.573
				c7.08-3.77,15.203-4.572,22.889-2.259c7.725,2.325,14.081,7.518,17.899,14.624l55.43,103.158
				c7.881,14.668,2.359,33.013-12.308,40.894l-66.682,35.831l20.499,105.683c8.117,41.868-19.339,82.539-61.205,90.661
				l-61.312,11.89C2107.496,1905.981,2104.866,1906.232,2102.257,1906.233z M2209.066,1513.137c-3.016,0-6.004,0.746-8.735,2.214
				c-0.069,0.038-0.14,0.073-0.211,0.108c-1.236,0.601-123.901,60.279-149.806,74.377c-25.456,13.853-26.84,21.871-23.932,36.864
				l47.382,244.257c1.479,7.635,5.843,14.236,12.289,18.586c6.445,4.351,14.2,5.933,21.835,4.45l61.312-11.89
				c35.536-6.895,58.842-41.416,51.952-76.955l-21.319-109.908c-0.487-2.513,0.717-5.052,2.972-6.264l70.475-37.869
				c8.988-4.829,12.371-16.07,7.542-25.058l-55.43-103.158c-2.339-4.354-6.234-7.537-10.968-8.961
				C2212.659,1513.4,2210.857,1513.137,2209.066,1513.137z M2197.562,1510.201h0.01H2197.562z"/><path fill="#fff" d="M2293.239,1536.98l-110.693,81.296c-3.427,2.515-5.848,5.857-7.329,9.529
				c-4.947,8.516-6.413,18.982-2.916,29.007l81.964,234.922c6.358,18.231,26.293,27.853,44.528,21.492l58.967-20.573
				c37.284-13.008,56.964-53.778,43.954-91.061l-39.668-113.697l27.304-20.051c9.812-7.209,11.925-21.009,4.717-30.825
				l-70.003-95.32C2316.852,1531.885,2303.055,1529.773,2293.239,1536.98z"/><path fill="#212121" d="M2287.242,1921.046c-6.061,0-12.089-1.366-17.708-4.078c-9.817-4.738-17.2-13.016-20.789-23.308
				l-81.964-234.921c-3.842-11.012-2.682-23.202,3.176-33.514c1.975-4.698,5.125-8.723,9.131-11.663l110.69-81.294
				c7.424-5.45,17.048-6.886,25.75-3.841c1.902,0.666,20.283,10.088,34.296,18.837c2.739,1.71,3.573,5.317,1.863,8.056
				s-5.317,3.572-8.056,1.863c-13.737-8.578-30.152-16.877-32.122-17.772c-5.016-1.698-10.541-0.851-14.81,2.283l-110.692,81.295
				c-2.398,1.759-4.203,4.115-5.367,7.003c-0.104,0.259-0.227,0.51-0.368,0.751c-4.318,7.432-5.211,16.232-2.45,24.144
				l81.964,234.923c2.561,7.343,7.828,13.248,14.831,16.628c7.004,3.38,14.906,3.832,22.251,1.269l58.967-20.573
				c16.558-5.776,29.875-17.656,37.498-33.448c7.623-15.793,8.639-33.609,2.862-50.167l-39.668-113.697
				c-0.846-2.425-0.01-5.118,2.06-6.638l27.304-20.051c2.603-1.911,6.263-1.35,8.173,1.251c1.911,2.603,1.351,6.262-1.251,8.173
				l-23.821,17.493l38.245,109.616c6.807,19.506,5.609,40.496-3.372,59.102c-8.98,18.606-24.669,32.601-44.177,39.406
				l-58.966,20.573C2296.317,1920.283,2291.771,1921.046,2287.242,1921.046z M2311.639,1539.455c0.005,0.001,0.01,0.003,0.015,0.005
				C2311.649,1539.458,2311.644,1539.457,2311.639,1539.455z"/><path fill="#212121" d="M2114.026,1864.469c-2.756,0-5.209-1.957-5.739-4.763c0,0-3.815-20.214-9.273-49.223
				c-1.081-5.746-4.402-10.629-9.352-13.751c-4.934-3.112-10.75-4.004-16.374-2.51c-3.12,0.827-6.323-1.03-7.151-4.151
				c-0.829-3.121,1.03-6.323,4.151-7.151c8.676-2.304,18.01-0.873,25.611,3.921c7.618,4.805,12.941,12.634,14.606,21.479
				c5.457,29.004,9.271,49.215,9.271,49.216c0.599,3.173-1.488,6.231-4.661,6.83
				C2114.75,1864.436,2114.385,1864.469,2114.026,1864.469z"/><path fill="#212121" d="M2306.623,1868.113c-2.323,0-4.521-1.394-5.433-3.684c0,0-7.616-19.108-18.53-46.535
				c-2.161-5.432-6.356-9.589-11.812-11.705c-5.438-2.109-11.317-1.87-16.551,0.673c-2.904,1.411-6.403,0.2-7.814-2.705
				c-1.411-2.905-0.2-6.403,2.705-7.814c8.072-3.922,17.508-4.306,25.889-1.057c8.397,3.256,15.121,9.92,18.449,18.284
				c10.912,27.422,18.527,46.528,18.527,46.529c1.196,3-0.267,6.4-3.267,7.596
				C2308.075,1867.979,2307.343,1868.113,2306.623,1868.113z"/></g><g><path fill="#fff" d="M736.887,2990.101c0,0-85.498-106.206-90.848-152.19c-5.35-45.984,57.463-132.266,118.442-177.27
				C751.499,2767.383,749.869,2883.358,736.887,2990.101z"/><path fill="#212121" d="M736.888,2995.947c-1.742,0-3.427-0.779-4.555-2.181c-3.534-4.39-86.619-108.062-92.102-155.181
				c-5.734-49.288,59.036-137.082,120.777-182.65c1.88-1.387,4.402-1.521,6.418-0.347c2.016,1.177,3.14,3.439,2.858,5.757
				c-6.471,53.209-10.179,109.737-13.766,164.403c-3.597,54.829-7.317,111.524-13.828,165.058c-0.284,2.333-1.937,4.27-4.197,4.916
				C737.963,2995.874,737.422,2995.947,736.888,2995.947z M757.057,2673.821c-25.865,21.137-52.073,49.64-71.852,78.399
				c-23.508,34.182-35.667,65.168-33.358,85.014c4.103,35.265,59.162,109.82,80.881,138.055
				c5.479-49.029,8.852-100.44,12.123-150.306C748.138,2774.876,751.527,2723.209,757.057,2673.821z"/><path fill="#fff" d="M1203.569,2230.914c-303.81-102.823-633.451,60.109-736.273,363.917l1100.189,372.353
					C1670.308,2663.375,1507.377,2333.736,1203.569,2230.914z"/><path fill="#212121" d="M1567.486,2973.032c-0.622,0-1.253-0.101-1.875-0.311l-1100.19-372.353
					c-1.469-0.497-2.68-1.558-3.367-2.947c-0.687-1.391-0.793-2.996-0.296-4.465c25.386-75.008,64.705-142.803,116.865-201.5
					c50.379-56.694,110.552-102.556,178.849-136.312s141.276-53.708,216.914-59.301c78.309-5.787,156.05,4.146,231.059,29.532
					c75.007,25.386,142.801,64.705,201.499,116.865c56.693,50.378,102.555,110.552,136.312,178.848s53.708,141.276,59.301,216.912
					c5.79,78.312-4.146,156.051-29.532,231.058C1572.199,2971.495,1569.924,2973.032,1567.486,2973.032z M474.736,2591.177
					l1089.058,368.585c97.777-298.735-63.682-622.312-362.099-723.31C903.277,2135.452,578.486,2294.462,474.736,2591.177z"/><path fill="#212121" d="M1017.393,2794.715c-1.458,0-2.935-0.235-4.393-0.727l-579.921-196.271
						c-7.167-2.427-11.01-10.204-8.585-17.373c2.432-7.169,10.21-11.006,17.371-8.586l579.921,196.271
						c7.167,2.427,11.01,10.204,8.585,17.373C1028.436,2791.113,1023.109,2794.715,1017.393,2794.715z"/><path fill="#212121" d="M1017.393,2800.562c-2.123,0-4.23-0.348-6.264-1.035l-579.925-196.272
						c-10.208-3.455-15.703-14.573-12.249-24.784c3.462-10.206,14.579-15.699,24.781-12.252l579.923,196.273
						c10.208,3.455,15.703,14.573,12.249,24.784C1033.216,2795.223,1025.775,2800.562,1017.393,2800.562z M437.485,2576.882
						c-3.277,0-6.344,2.067-7.454,5.34c-1.387,4.1,0.82,8.568,4.922,9.956l579.921,196.271c0.822,0.277,1.67,0.419,2.519,0.419
						c3.368,0,6.357-2.147,7.44-5.343c1.388-4.102-0.82-8.569-4.921-9.958L439.99,2577.295
						C439.161,2577.015,438.316,2576.882,437.485,2576.882z"/><path fill="#212121" d="M1017.393,2794.715c-1.458,0-2.935-0.235-4.393-0.727c-7.167-2.427-11.009-10.204-8.585-17.373
						l196.271-579.919c2.425-7.169,10.203-11.013,17.371-8.586c7.167,2.427,11.01,10.203,8.585,17.373l-196.272,579.919
						C1028.436,2791.113,1023.109,2794.715,1017.393,2794.715z"/><path fill="#212121" d="M1017.393,2800.562c-2.123,0-4.23-0.348-6.264-1.035c-10.212-3.456-15.707-14.574-12.252-24.785
						l196.272-579.92c1.673-4.946,5.173-8.944,9.854-11.258c4.682-2.313,9.984-2.666,14.929-0.992
						c10.208,3.456,15.703,14.574,12.249,24.784l-196.272,579.92C1033.216,2795.223,1025.775,2800.562,1017.393,2800.562z
						 M1213.657,2193.229c-1.191,0-2.375,0.274-3.473,0.817c-1.881,0.93-3.287,2.536-3.959,4.523l-196.272,579.92
						c-1.388,4.104,0.819,8.572,4.921,9.96c0.822,0.277,1.67,0.419,2.519,0.419c3.368,0,6.357-2.147,7.44-5.343l196.271-579.918
						c1.388-4.103-0.819-8.571-4.921-9.96C1215.356,2193.368,1214.504,2193.229,1213.657,2193.229z"/><path fill="#212121" d="M1017.386,2794.711c-3.231,0-6.475-1.137-9.082-3.449L550.18,2385.12
						c-5.663-5.021-6.187-13.681-1.162-19.344c5.018-5.656,13.683-6.187,19.339-1.164l458.124,406.142
						c5.663,5.021,6.187,13.681,1.162,19.344C1024.936,2793.151,1021.174,2794.711,1017.386,2794.711z"/><path fill="#212121" d="M1017.386,2800.559c-4.781,0-9.384-1.749-12.962-4.924l-458.121-406.14
						c-3.908-3.465-6.233-8.243-6.546-13.455c-0.314-5.214,1.422-10.237,4.889-14.145c3.463-3.903,8.24-6.227,13.45-6.542
						c5.218-0.316,10.24,1.42,14.145,4.887l458.12,406.139c3.908,3.465,6.232,8.243,6.546,13.454
						c0.314,5.214-1.422,10.237-4.889,14.145C1028.309,2798.16,1022.976,2800.559,1017.386,2800.559z M559.287,2367.011
						c-0.161,0-0.323,0.005-0.485,0.015c-2.096,0.127-4.017,1.061-5.41,2.631c-1.393,1.569-2.09,3.587-1.964,5.681
						c0.126,2.095,1.061,4.015,2.632,5.408l458.123,406.142c1.438,1.276,3.286,1.979,5.203,1.979c2.248,0,4.392-0.964,5.883-2.646
						c1.394-1.571,2.091-3.589,1.965-5.683c-0.126-2.095-1.061-4.015-2.631-5.407l-458.123-406.143
						C563.032,2367.703,561.205,2367.011,559.287,2367.011z"/><g><path fill="#212121" d="M1017.399,2794.713c-5.105,0-10.009-2.872-12.366-7.789l-264.364-552.214
						c-3.265-6.825-0.383-15.008,6.442-18.276c6.811-3.256,15.006-0.388,18.278,6.444l264.364,552.214
						c3.265,6.825,0.383,15.008-6.442,18.276C1021.403,2794.281,1019.388,2794.713,1017.399,2794.713z"/><path fill="#212121" d="M1017.399,2800.56c-7.479,0-14.403-4.359-17.639-11.106l-264.366-552.218
						c-4.652-9.724-0.529-21.419,9.19-26.074c9.728-4.65,21.423-0.526,26.076,9.192l264.365,552.214
						c4.652,9.725,0.528,21.421-9.19,26.074C1023.176,2799.914,1020.338,2800.56,1017.399,2800.56z M753.013,2220.94
						c-1.136,0-2.29,0.247-3.381,0.769c-3.902,1.869-5.559,6.57-3.689,10.478l264.363,552.213c1.3,2.712,4.085,4.466,7.093,4.466
						c1.177,0,2.317-0.26,3.387-0.771c3.905-1.87,5.562-6.571,3.692-10.48l-264.364-552.212
						C758.766,2222.587,755.946,2220.94,753.013,2220.94z"/></g><g><path fill="#212121" d="M1017.379,2794.711c-7.268,0-13.327-5.715-13.676-13.052l-29.079-611.541
						c-0.356-7.56,5.481-13.979,13.038-14.338c7.402-0.395,13.979,5.473,14.341,13.035l29.079,611.541
						c0.356,7.56-5.481,13.979-13.038,14.338C1017.822,2794.706,1017.601,2794.711,1017.379,2794.711z"/><path fill="#212121" d="M1017.379,2800.559c-10.446,0-19.019-8.179-19.517-18.62l-29.079-611.542
						c-0.507-10.769,7.837-19.944,18.601-20.456c5.13-0.266,10.111,1.515,14.008,5.036c3.91,3.533,6.201,8.349,6.451,13.559
						l29.08,611.543c0.507,10.769-7.837,19.943-18.601,20.455C1018.028,2800.55,1017.704,2800.559,1017.379,2800.559z
						 M988.371,2161.609c-0.132,0-0.265,0.004-0.397,0.011c-4.359,0.208-7.713,3.896-7.509,8.224l29.079,611.539
						c0.2,4.195,3.642,7.482,7.836,7.482c0.119,0,0.238-0.003,0.356-0.01c4.357-0.207,7.71-3.896,7.507-8.224l-29.079-611.538
						c-0.099-2.077-1.027-4.01-2.61-5.441C992.085,2162.327,990.258,2161.609,988.371,2161.609z"/></g><g><path fill="#212121" d="M1597.307,2990.985c-1.458,0-2.935-0.235-4.393-0.727l-579.914-196.27
						c-7.167-2.427-11.009-10.204-8.585-17.373c2.425-7.167,10.197-11.008,17.371-8.586l579.914,196.27
						c7.167,2.427,11.01,10.204,8.585,17.373C1608.35,2987.383,1603.023,2990.985,1597.307,2990.985z"/><path fill="#212121" d="M1597.307,2996.831c-2.125,0-4.232-0.348-6.264-1.034l-579.918-196.271
						c-10.208-3.455-15.703-14.573-12.249-24.784c3.452-10.202,14.566-15.696,24.779-12.252l579.918,196.271
						c10.208,3.456,15.702,14.574,12.249,24.783C1613.131,2991.492,1605.69,2996.831,1597.307,2996.831z M1017.403,2773.154
						c-3.277,0-6.344,2.065-7.45,5.335c-1.388,4.104,0.819,8.572,4.921,9.96l579.914,196.271c0.82,0.277,1.668,0.418,2.519,0.418
						c3.368,0,6.358-2.147,7.44-5.343c1.387-4.101-0.821-8.569-4.922-9.958l-579.914-196.27
						C1019.081,2773.287,1018.235,2773.154,1017.403,2773.154z"/><path fill="#212121" d="M1017.379,2794.711c-7.114,0-13.125-5.5-13.649-12.709c-0.551-7.547,5.119-14.111,12.669-14.66
						l610.612-44.433c7.537-0.536,14.106,5.122,14.657,12.672c0.551,7.547-5.119,14.111-12.669,14.66l-610.612,44.433
						C1018.051,2794.7,1017.715,2794.711,1017.379,2794.711z"/><path fill="#212121" d="M1017.379,2800.559c-10.185,0-18.742-7.965-19.481-18.133c-0.38-5.206,1.291-10.249,4.704-14.2
						s8.163-6.336,13.372-6.715l610.612-44.433c10.752-0.775,20.13,7.345,20.913,18.077c0.38,5.208-1.29,10.252-4.704,14.202
						c-3.414,3.952-8.163,6.337-13.373,6.715l-610.611,44.434C1018.333,2800.541,1017.856,2800.559,1017.379,2800.559z
						 M1627.99,2728.721c-0.188,0-0.375,0.007-0.564,0.021l-610.603,44.432c-2.093,0.152-4.001,1.11-5.373,2.698
						c-1.371,1.587-2.042,3.613-1.89,5.705c0.297,4.088,3.731,7.289,7.818,7.289c0.195,0,0.389-0.008,0.584-0.021l610.611-44.434
						c2.094-0.152,4.001-1.11,5.373-2.697s2.042-3.613,1.89-5.706C1635.535,2731.882,1632.072,2728.721,1627.99,2728.721z"/><g><path fill="#212121" d="M1017.406,2794.713c-4.991,0-9.8-2.732-12.219-7.48c-3.439-6.741-0.759-14.993,5.978-18.432
						l545.394-278.156c6.757-3.443,15-0.752,18.432,5.982c3.439,6.741,0.759,14.993-5.978,18.432l-545.394,278.156
						C1021.624,2794.231,1019.495,2794.713,1017.406,2794.713z"/><path fill="#212121" d="M1017.406,2800.56c-7.397,0-14.075-4.09-17.428-10.673c-4.896-9.596-1.071-21.393,8.53-26.293
						l545.396-278.157c9.607-4.896,21.404-1.065,26.297,8.535c4.896,9.597,1.071,21.394-8.529,26.294l-545.396,278.157
						C1023.533,2799.821,1020.466,2800.56,1017.406,2800.56z M1562.772,2494.998c-1.2,0-2.417,0.275-3.558,0.856l-545.392,278.155
						c-3.857,1.969-5.395,6.709-3.426,10.566c1.349,2.647,4.034,4.29,7.01,4.29c1.241,0,2.438-0.29,3.56-0.86l545.392-278.155
						c3.856-1.969,5.395-6.71,3.427-10.566C1568.398,2496.564,1565.634,2494.998,1562.772,2494.998z"/></g><g><path fill="#212121" d="M1017.386,2794.711c-3.117,0-6.254-1.058-8.82-3.224c-5.79-4.877-6.529-13.522-1.653-19.309
						l394.498-468.184c4.877-5.785,13.529-6.528,19.305-1.649c5.79,4.877,6.529,13.522,1.652,19.309l-394.498,468.184
						C1025.158,2793.054,1021.289,2794.711,1017.386,2794.711z"/><path fill="#212121" d="M1017.386,2800.559c-4.603,0-9.074-1.635-12.591-4.604c-3.99-3.36-6.435-8.079-6.88-13.282
						c-0.445-5.203,1.163-10.269,4.528-14.262l394.498-468.185c3.366-3.993,8.084-6.436,13.288-6.881
						c5.204-0.447,10.272,1.164,14.261,4.533c3.989,3.359,6.434,8.078,6.879,13.281c0.445,5.203-1.163,10.269-4.529,14.262
						l-394.497,468.184C1028.612,2798.025,1023.162,2800.559,1017.386,2800.559z M1411.908,2304.967
						c-0.227,0-0.454,0.009-0.683,0.029c-2.092,0.179-3.99,1.162-5.343,2.766l-394.497,468.184c-1.352,1.604-1.999,3.64-1.819,5.729
						c0.179,2.091,1.162,3.987,2.767,5.34c1.415,1.194,3.208,1.85,5.053,1.85c2.324,0,4.517-1.02,6.018-2.798l394.495-468.181
						c1.353-1.604,1.999-3.639,1.82-5.73c-0.179-2.091-1.162-3.987-2.767-5.339
						C1415.521,2305.61,1413.754,2304.967,1411.908,2304.967z"/></g></g><g><path fill="#212121" d="M1092.535,2558.98c-122.622-41.5-255.67,24.261-297.171,146.883l444.054,150.288
					C1280.918,2733.53,1215.156,2600.481,1092.535,2558.98z"/><path fill="#212121" d="M1239.418,2862c-0.622,0-1.253-0.101-1.875-0.311l-444.054-150.288
					c-3.059-1.035-4.699-4.354-3.664-7.412c20.572-60.785,63.584-109.92,121.112-138.354
					c57.529-28.435,122.687-32.764,183.471-12.192c60.785,20.572,109.92,63.584,138.354,121.112
					c28.435,57.528,32.765,122.687,12.192,183.471C1244.131,2860.463,1241.856,2862,1239.418,2862z M802.845,2702.223
					l432.839,146.492c36.592-117.821-27.502-244.421-145.024-284.196c-57.826-19.57-119.813-15.453-174.541,11.599
					C863.142,2602.303,823.104,2646.941,802.845,2702.223z"/></g><g><path fill="#fff" d="M749.931,3039.84c-76.972-103.977,5.758-465.144,72.572-514.648
				c66.816-49.503,273.297-90.308,421.959-37.309c41.326,14.733,61.124,62.393,43.263,102.466
				c-23.704,53.187-50.528,138.857-38.95,238.373c15.78,135.632-6.766,202.635-89.857,248.811
				C1075.826,3123.705,826.903,3143.812,749.931,3039.84z"/><path fill="#212121" d="M887.251,3114.833c-0.318,0-0.641-0.026-0.965-0.08c-65.767-10.921-114.542-35.623-141.054-71.435
				c-18.77-25.355-29.426-65.916-31.671-120.557c-1.932-47,2.557-102.913,12.979-161.694
				c9.622-54.258,23.876-107.976,40.139-151.256c12.005-31.948,30.831-73.379,52.343-89.317
				c35.458-26.271,105.598-48.571,183.047-58.198c89.909-11.175,176.69-4.045,244.356,20.079
				c21.31,7.597,38.012,23.383,47.032,44.45c9.024,21.077,8.881,45.099-0.392,65.902c-23.826,53.46-49.843,137.681-38.483,235.317
				c13.164,113.147-0.94,177.743-48.683,222.961c-2.345,2.22-6.046,2.119-8.266-0.225c-2.22-2.345-2.12-6.045,0.225-8.266
				c44.724-42.357,57.792-104.103,45.109-213.119c-11.666-100.269,14.997-186.634,39.417-241.429
				c7.952-17.84,8.069-38.447,0.323-56.541c-7.723-18.038-22.002-31.547-40.209-38.038
				c-143.831-51.275-348.634-13.792-416.516,36.501c-14.997,11.111-32.171,40.956-48.358,84.035
				c-16.018,42.629-30.071,95.61-39.571,149.185c-22.471,126.726-16.274,228.875,16.576,273.252
				c24.669,33.323,70.858,56.441,133.571,66.856c3.185,0.529,5.339,3.54,4.81,6.726
				C892.536,3112.805,890.059,3114.833,887.251,3114.833z"/><path fill="#212121" d="M1061.786,2724.098c-0.32,0-0.645-0.026-0.972-0.081c-3.185-0.533-5.334-3.547-4.802-6.731
				c10.606-63.4,25.301-126.691,43.678-188.116c4.977-16.632,10.308-33.411,15.846-49.87c1.029-3.061,4.344-4.714,7.406-3.677
				c3.061,1.029,4.707,4.345,3.677,7.405c-5.497,16.335-10.788,32.987-15.726,49.493c-18.238,60.96-32.822,123.772-43.348,186.694
				C1067.068,2722.073,1064.591,2724.098,1061.786,2724.098z"/><path fill="#212121" d="M887.251,2731.562c-0.32,0-0.645-0.026-0.972-0.081c-3.185-0.533-5.334-3.547-4.802-6.731
				c1.09-6.515,2.194-13.438,3.364-20.768c8.436-52.865,19.988-125.266,51.797-207.367c1.166-3.011,4.553-4.505,7.564-3.34
				c3.011,1.167,4.506,4.554,3.339,7.564c-31.36,80.944-42.8,152.638-51.153,204.985c-1.173,7.352-2.281,14.296-3.378,20.854
				C892.533,2729.538,890.056,2731.562,887.251,2731.562z"/></g></g></svg>