<svg xmlns="http://www.w3.org/2000/svg" xmlns:xlink="http://www.w3.org/1999/xlink" enable-background="new 0 0 850 850" viewBox="0 0 850 850"><path fill="#efefef" d="M719.91,503.19H409.56c0,0-22.86-17.58-14.95-43.96c7.91-26.38,40.44-27.25,40.44-27.25
				s1.76-61.54,60.66-75.61s90.55,38.68,90.55,38.68s33.41-35.17,67.7-19.34c34.29,15.83,28.13,52.88,28.13,52.88
				s29.89-4.52,45.72,30.64C738.58,483.15,719.91,503.19,719.91,503.19z"/><circle cx="428.43" cy="367.71" r="98.18" fill="#dbdbdb"/><circle cx="428.43" cy="367.71" r="78.68" fill="#d1d1d1"/><path fill="#dbdbdb" d="M467.19,253.66l-9.1-41.47l-21.03,35.4C447.53,248.34,457.62,250.41,467.19,253.66z"/><path fill="#dbdbdb" d="M545.66,395.37c-2.65,11.26-6.87,21.9-12.42,31.69l46.15,0.39L545.66,395.37z"/><path fill="#dbdbdb" d="M360.78,268.04l-34.14-16.8l13.19,34.88C346.09,279.32,353.12,273.25,360.78,268.04z"/><path fill="#dbdbdb" d="M541.59,326.33l28.98-35.71l-44.79,6.18C532.34,305.79,537.7,315.7,541.59,326.33z"/><path fill="#dbdbdb" d="M451.47,485.95l26.43,33.72l3.84-43.93C472.28,480.41,462.13,483.88,451.47,485.95z"/><path fill="#dbdbdb" d="M307.97,367.71c0-1.63,0.06-3.24,0.12-4.86l-32.88,15.49l34.77,11.2
					C308.68,382.46,307.97,375.17,307.97,367.71z"/><path fill="#dbdbdb" d="M351.42,460.33l-8.89,37.48l32.97-21.88C366.83,471.69,358.76,466.44,351.42,460.33z"/><path fill="#efefef" d="M482.1,470.74H139.52c0,0-5.57-28.55,22.28-34.12c0,0-11.14-30.64,6.96-52.22
				c18.1-21.59,46.42-17.41,46.42-17.41s20.42-45.96,68.47-53.62c48.04-7.66,91.22,27.85,98.87,67.54c0,0,21.59-6.27,38.3,4.18
				s16.71,36.9,16.71,36.9S482.8,423.39,482.1,470.74z"/><g transform="matrix(.51383 .11221 -.11024 .5048 148.205 44.35)"><path fill="#fab393" fill-rule="evenodd" d="M223.58,703.43c-3.75,2.28-8.86,4.61-7.49,4.32c0.74,0.93,3.53,4.61,3.16,6.58
				c-0.34,1.86-1.4,3.48-2.02,5.24c-0.28,0.78-0.55,1.57-0.77,2.37c-0.07,0.24-0.12,0.49-0.17,0.73c-0.17,0.86-0.8,3.11,0.85,2.55
				c0.21-0.07,0.39-0.19,0.56-0.33c0.24-0.19,0.45-0.41,0.64-0.65c0.58-0.77,0.92-1.71,1.29-2.59c0.52-1.26,1.03-2.53,1.59-3.78
				c-0.78,2.86-1.62,5.68-2.24,8.58c-0.14,0.68-0.32,1.36-0.35,2.06c-0.01,0.14-0.07,0.6,0.06,0.73c0.1,0.11,0.52-0.04,0.64-0.08
				c0.64-0.22,1.14-0.76,1.49-1.33c1.36-2.2,1.78-4.89,2.5-7.35c-0.15,1.69-0.07,3.4-0.17,5.09c-0.05,0.96-0.1,1.92-0.14,2.87
				c-0.04,0.83-0.06,1.65-0.03,2.48c0.02,0.39,0.02,0.91,0.2,1.27c0.11,0.23,0.66,0.15,0.83,0.11c0.73-0.19,1.19-1,1.43-1.67
				c0.47-1.28,0.52-2.66,0.76-3.99c0.26-1.45,0.7-2.86,0.9-4.32c0.37-2.68-0.18-5.29,0.56-7.91c0.37-1.29,0.91-2.51,1.46-3.73
				c0.92-2.02,1.63-3.58,0.42-5.64c-0.27-0.45-0.6-0.88-0.98-1.24c-0.51-0.48-1.15-0.79-1.81-0.95L223.58,703.43z" clip-rule="evenodd" transform="rotate(-7.347 -1133.126 2274.944) scale(1.46349)"/><path fill="#f4d0b8" fill-rule="evenodd" d="M264.42,534.82c-20.81,13.53-16.46,34.42-18.57,56.63c-1.06,11.21-0.14,30.97-5.37,40.53
				c-9.67,17.67-14.55,31.19-21.68,71.14c3.58,6.61,10.68,7.21,11.85,5.26c24.14-40.13,25.76-53.04,35.02-87.29
				c5.69-21.02,12.6-56.86,8.9-69.7C272.85,545.44,264.42,534.82,264.42,534.82z" clip-rule="evenodd" transform="rotate(-7.347 -1133.126 2274.944) scale(1.46349)"/><path fill="#f4dcc9" fill-rule="evenodd" d="M294.77,593.34c6.03-0.51,12.03-0.41,18.01,0.49c35.22,5.27,25.21,56.6,26.94,86.56
				c1.55,26.75,13.11,41.89-21.42,45.71" clip-rule="evenodd" transform="matrix(1.60493 -.20694 .15998 1.24073 -353.799 -80.25)"/><path fill="#fcc1a9" d="M50.75,624.8c0,0-19.73-61.9-20.82-66.53c-4.22-17.89-8.55-33.55-19.63-37.73
				c-6.18-2.33-19.97-4.06-28.53-4.44c-8.08-0.36-39.63,17.63-30.58,37.32l21.29,78.32C-15.4,646.14,44.57,638.49,50.75,624.8" transform="rotate(10.165 -295.787 1892.495)"/><path fill="#fab393" d="M73.98,592.23c2.55,31.11,8.6,53.34,21.94,61.54c0,0,77.22-38.52,55.41-86.22
				c-27.55-60.24-85.03-23.26-85.03-23.26C69.85,561.55,73.01,580.53,73.98,592.23" transform="rotate(15.243 -334.188 1111.234)"/><path fill="#fcc1a9" d="M-72.39,562.15c7.88-3.74,12.52-12.19,10.37-18.86l-15.58-47.58c-2.15-6.67-2.06,15.69-9.93,19.44
				c-7.87,3.74-12.52,12.19-10.37,18.86l7.36,22.84C-88.39,563.52-80.26,565.9-72.39,562.15" transform="translate(288.905 48.959)"/><path fill="#dda994" d="M192.54,590.39c0.93,4.32,1.79,14.35,6.59,13.28s19.86-21.84,15.78-27.11c-2.7-3.47-10.56,3-15.36,4.06
			C194.75,581.7,191.61,586.07,192.54,590.39z"/><path fill="#f4d0b8" fill-rule="evenodd" d="M293.75,463.24c-2.45-3.73-3.49-7.83-7.34-8.64c-4.16-0.86-5.91,2.77-8.62,7.86
				c-2.27,4.26-3.47,11.64-4.38,18.61c-2.23,17.14,6,30.51,11.68,38.44c6.47,9.03,12.83,12.65,14.07,12.03
				c1.39-0.69,1.83-2.89,1.98-4.22c0.46-4.16-0.01-8.36,0.37-12.52c0.51-5.63-0.48-10.91-0.74-16.49c-0.4-8.42,0.8-16.94-0.25-25.29
				C300.05,469.2,295.83,466.41,293.75,463.24z" clip-rule="evenodd" transform="matrix(1.45147 -.18715 .2385 1.84976 -347.223 -187.768)"/><path fill="#fab393" fill-rule="evenodd" d="M457.46,945.54c-0.95,5.05,1.35,11.92,2.71,16.71c0.96,3.38,0.36,7.23,1.74,10.47
				c1.91,4.5,5.87,0.27,7.08-2.37c1.71-3.72,0.52-9.64,0-13.47c-0.7-5.15,0.89-11.5-1.2-16.42c-2.15-5.06-7.51-3.09-9.05,1.42" clip-rule="evenodd" transform="matrix(-.89957 .60718 .5965 .91567 225.718 -106.361)"/><g transform="matrix(1.19181 -.86382 .83945 1.18866 -366.996 196.701)"><linearGradient id="a" x1="43.81" x2="115.757" y1="634.378" y2="634.378" gradientUnits="userSpaceOnUse"><stop offset="0" stop-color="#6b8fc9"/><stop offset="1" stop-color="#4e5684"/></linearGradient><path fill="url(#a)" d="M79.49,666.53L79.49,666.53c0-0.01-3.89-50.88-5.2-67.8c-1.12-14.54,6.93-84.31,26.3-68.96
				c22.29,17.66,33.1,38.17,24.45,71.93c-3.07,12-12.9,57.84-16.79,76.09c6.51,12.75,5.76,28.8-1.22,39.69
				c0,0-20.59,57.66-22.28,59.73c-2.75,3.36-10.12,0.4-10.12,0.4C72.28,776.35,79.46,667.29,79.49,666.53z"/><defs><path id="b" d="M79.49,666.53L79.49,666.53c0-0.01-3.89-50.88-5.2-67.8c-1.12-14.54,6.93-84.31,26.3-68.96
						c22.29,17.66,33.1,38.17,24.45,71.93c-3.07,12-12.9,57.84-16.79,76.09c6.51,12.75,5.76,28.8-1.22,39.69
						c0,0-20.59,57.66-22.28,59.73c-2.75,3.36-10.12,0.4-10.12,0.4C72.28,776.35,79.46,667.29,79.49,666.53z"/></defs><clipPath id="c"><use overflow="visible" xlink:href="#b"/></clipPath><g clip-path="url(#c)"><path fill="#008d77" fill-rule="evenodd" d="M106.86,600.74l0.18,0.18l-0.18,0.18l-0.23,0.16l-0.3,0.08l-0.41,0.13l-0.13,0.01l-0.54,0.04l-0.54,0.04
						l-0.06,0.01l-0.48,0.03l-0.54,0.03l-0.38,0.02l-0.7-0.01l-1.09-0.02l-0.54-0.01l-0.55-0.01l-0.55,0h-0.55l-0.55,0l-0.5,0.01
						h-0.05l-0.55,0.01l-0.55,0.01l-0.55,0.02l-0.55,0.02l-0.27,0.01l-0.28,0.02l-0.07,0l-0.21,0.01l-0.27,0.02l-0.27,0.02
						l-0.28,0.02l-0.27,0.02l-0.27,0.02l-0.28,0.03l-0.27,0.03l-0.1,0.01l-0.17,0.01l-0.28,0.02l-0.28,0.02l-0.25,0.02h-0.02
						l-0.28,0.02l-0.28,0.02l-0.28,0.02l-0.28,0.02l-0.13,0.01l-0.15,0.01l-0.28,0.03l-0.28,0.03l-0.28,0.04l-0.28,0.04l-0.29,0.04
						l-0.74-0.44l0.47-0.74l0.28-0.1l0.29-0.09l0.29-0.09l0.29-0.09l0.29-0.09l0.15-0.04l0.13-0.04l0.29-0.08l0.29-0.08l0.29-0.07
						l0.29-0.07l0.02-0.01l0.26-0.05l0.29-0.06l0.29-0.05l0.18-0.03l0.11-0.01l0.29-0.03l0.29-0.03l0.29-0.03l0.29-0.03l0.29-0.02
						l0.29-0.02l0.29-0.02l0.22-0.01l0.07,0l0.29-0.01l0.29-0.01l0.57-0.01l0.57-0.01h0.56l0.56,0.01l0.05,0l0.51,0.01l0.56,0.02
						l0.56,0.02l0.55,0.03l0.55,0.03l0.55,0.03l1.09,0.06l0.7,0.04l0.38,0.05l0.53,0.06l0.47,0.05l0.06,0.01l0.53,0.07l0.53,0.06
						l0.13,0.01l0.4,0.14l0.29,0.09L106.86,600.74z" clip-rule="evenodd"/><path fill="#008d77" fill-rule="evenodd" d="M96.55,566.09l0.05-0.02l0.04-0.04l-0.01,0.01l0.03-0.05l0,0.02l0.01-0.04v0.02l0.01-0.03l0,0.02l0-0.02
						l0.01,0.02v-0.03L96.7,566l0-0.02l0.03,0.06l0-0.02l0.04,0.07l0-0.01l0.04,0.07l0.05,0.07l0-0.01l0.06,0.08l0.13,0.16
						l0.16,0.17l0.01,0.01l0.1,0.2l0.23,0.44l0.11,0.22l0.11,0.21l0.1,0.2l0.08,0.18l0.04,0.09l0.03,0.09l0.03,0.09l0.02,0.09
						l0.06,0.27l0.01,0.06l0.04,0.2l0.05,0.26l0.05,0.26l0.04,0.26l0.04,0.26l0.04,0.26l0.04,0.26l0.04,0.27l0.04,0.27l0.02,0.12
						l0.03,0.41l0.03,0.53l0.03,0.53l0.02,0.53l0.02,0.53l0.02,0.53l0.01,0.53l0.02,1.04l0.02,1.03l0.01,0.52l0.01,0.52l0,0.52
						l0,0.52l0,1.05l0,1.05l-0.01,1.05v1.05l0,0.52l0,0.52l0,0.19l0,0.33l0.01,0.52l0.01,0.52l0.01,0.52l0.02,0.52l0.02,0.51
						l0.03,0.51l0.03,0.51l0.04,0.51l0.04,0.51l0.02,0.25l0.03,0.25l0.03,0.25l0.03,0.25l0.03,0.25l0.03,0.25l0.03,0.25l0.04,0.25
						l0.04,0.25l0.04,0.24l0.03,0.21l0.01,0.04l0.04,0.24l0.04,0.24l0.04,0.24l0.05,0.24l0.05,0.25l0.03,0.17l0.03,0.19l0.03,0.18
						l0.02,0.18l0.02,0.18l0.02,0.18l0.01,0.18l0.01,0.18l0.02,0.35l0.02,0.34l0.02,0.33l0.02,0.32l0.01,0.15l0.01,0.15l0.02,0.15
						l0.02,0.14l0.02,0.14l0.02,0.13l0.03,0.13l0.03,0.12l0.03,0.12l0.03,0.11l0.04,0.11l0.02,0.04l0.02,0.05l0.02,0.04l0.02,0.05
						l0.02,0.04l0.02,0.05l0.02,0.04l0.02,0.04l0,0l0.03,0.06l-0.02-0.03l0.03,0.05l0.05,0.08l-0.02-0.03l0.05,0.07l0.05,0.07
						l-0.03-0.03l0.05,0.06l0.05,0.06l-0.03-0.03l0.05,0.06l0.05,0.05l-0.03-0.03l0.05,0.05l0.05,0.05l-0.04-0.03l0.05,0.04
						l0.05,0.04l-0.04-0.03l0.05,0.04l0.06,0.04l-0.04-0.02l0.06,0.03l0.06,0.03l-0.04-0.02l0.06,0.03l0.06,0.03l-0.04-0.01
						l0.06,0.03l0.06,0.03l-0.03-0.01l0.07,0.02l0.07,0.02l-0.03-0.01l0.07,0.02l0.07,0.02l-0.03-0.01l0.07,0.02l0.07,0.02l-0.03,0
						l0.07,0.01l0.07,0.01l-0.02,0l0.07,0.01l0.14,0.02l0.15,0.01l0.15,0.01l0.16,0l0.1,0l0.07,0l0.17,0l0.37,0l0.38,0l0.2,0
						l0.21,0.01l0.21,0.01l0.21,0.01l0.22,0.02l0.21,0.03l0.11,0.02l0.11,0.02l0.11,0.02l0.1,0.02l0.35,0.07l0.34,0.07l0.35,0.07
						l0.25,0.04l0.11,0.02l0.36,0.07l0.36,0.06l0.37,0.06l0.37,0.06l1.5,0.23l0.38,0.06l0.38,0.06l0.38,0.06l0.38,0.07l0.38,0.07
						l0.38,0.07l0.38,0.07l0.25,0.05l0.13,0.04l0.37,0.1l0.37,0.11l0.18,0.06l0.18,0.06l0.18,0.06l0.18,0.06l0.18,0.06l0.18,0.06
						l0.18,0.07l0.18,0.07l0.18,0.07l0.17,0.07l0.17,0.07l0.17,0.07l0.17,0.07l0.17,0.08l0.17,0.08l0.17,0.08l0.16,0.08l0.16,0.09
						l0.16,0.09l0.16,0.09l0.11,0.29l-0.29,0.1l-0.17-0.07l-0.16-0.06l-0.17-0.06l-0.17-0.06l-0.17-0.06l-0.17-0.05l-0.17-0.05
						l-0.17-0.05l-0.17-0.04l-0.17-0.04l-0.17-0.04l-0.18-0.04l-0.18-0.04l-0.18-0.03l-0.18-0.03l-0.18-0.03l-0.18-0.03l-0.18-0.02
						l-0.18-0.02l-0.18-0.02l-0.37-0.03l-0.37-0.03l-0.13-0.01l-0.24-0.03l-0.37-0.03l-0.37-0.03l-0.37-0.03l-0.37-0.02l-0.38-0.02
						l-0.38-0.02l-0.38-0.01l-1.52-0.05l-0.38-0.01l-0.38-0.01l-0.38-0.02l-0.38-0.02l-0.11-0.01l-0.26-0.02l-0.37-0.03l-0.37-0.04
						l-0.36-0.04l-0.08-0.01l-0.07,0l-0.08-0.01l0.02,0l-0.08,0h-0.16l-0.16,0l-0.16,0.01l-0.17,0.01l-0.17,0.02l-0.18,0.02
						l-0.37,0.04l-0.38,0.04l-0.2,0.02l-0.08,0.01l-0.12,0.01l-0.21,0.01l-0.21,0l-0.21,0l-0.21-0.01l-0.11-0.01l-0.11-0.01
						l-0.11-0.01l-0.11-0.02l-0.11-0.02l-0.11-0.02l-0.11-0.03l-0.12-0.03l-0.12-0.03l-0.12-0.04l-0.12-0.04l-0.12-0.05l-0.12-0.05
						l-0.12-0.05l-0.12-0.06l-0.11-0.06l-0.11-0.07l-0.11-0.07l-0.11-0.08l-0.11-0.08l-0.11-0.09l-0.1-0.09l-0.1-0.1l-0.1-0.1
						l-0.1-0.11l-0.09-0.11l-0.09-0.12l-0.09-0.12l-0.06-0.09L98,599.13L98,599.13l-0.05-0.09l-0.05-0.1l-0.05-0.1l-0.05-0.1
						l-0.04-0.1l-0.04-0.1l-0.04-0.1l-0.04-0.1l-0.06-0.19l-0.06-0.2l-0.05-0.2l-0.04-0.2l-0.04-0.2l-0.03-0.19l-0.03-0.19
						l-0.02-0.19l-0.02-0.19l-0.02-0.19l-0.02-0.19l-0.02-0.36l-0.02-0.35l-0.02-0.34l-0.02-0.33l-0.01-0.15l-0.01-0.15l-0.01-0.15
						l-0.01-0.14l-0.02-0.14l-0.02-0.13l-0.02-0.13l-0.03-0.13l-0.05-0.25l-0.05-0.26l-0.05-0.26l-0.04-0.26l-0.04-0.26l-0.01-0.04
						l-0.03-0.22l-0.03-0.27l-0.03-0.27l-0.03-0.27l-0.03-0.27l-0.03-0.27l-0.02-0.27l-0.02-0.27l-0.02-0.27l-0.02-0.27l-0.02-0.27
						l-0.03-0.53l-0.02-0.53l-0.02-0.53l-0.01-0.53l-0.01-0.53l0-0.53l0-0.53l0.01-0.53l0.01-0.53l0.01-0.34l0.01-0.19l0.02-0.53
						l0.02-0.53l0.04-1.06l0.05-1.05l0.04-1.05l0.04-1.04l0.02-0.52l0.02-0.51l0.01-0.51l0.01-0.51l0.02-1.02l0.02-1.04l0.01-0.52
						l0.01-0.52v-0.52l0-0.52l-0.01-0.52l-0.01-0.52l-0.01-0.4l0-0.12l0-0.26l0-0.26l0-0.26l0-0.26l-0.01-0.25l-0.01-0.25
						l-0.01-0.25l-0.01-0.25l-0.01-0.2l0-0.05l-0.01-0.25l0.01,0.04l-0.01-0.05l0.01,0.05l-0.01-0.06l0.01,0.03l-0.02-0.07
						l0.01,0.02l-0.02-0.07l-0.05-0.16l-0.06-0.19l-0.07-0.21l-0.08-0.23l-0.16-0.48l-0.07-0.23l0-0.01l-0.01-0.25l-0.01-0.23
						l-0.01-0.11l-0.01-0.1l0-0.09l0-0.09l0-0.08l0.01-0.08l0.01-0.05l0.01-0.05l0.02-0.05l0.03-0.06l0.03-0.03l0.02-0.02l0.02-0.02
						l0,0l0.01-0.01l0.03-0.02l0.03-0.01l0,0l0.01,0l0.03-0.01l0,0l0.03,0h0.02l0.24,0.2h0l-0.2,0.25L96.55,566.09z" clip-rule="evenodd"/></g></g><path fill="#fab393" fill-rule="evenodd" d="M41.47,1153.43c-0.95,5.05,1.35,11.92,2.71,16.71c0.96,3.38,0.36,7.23,1.74,10.47
				c1.91,4.5,5.87,0.27,7.08-2.37c1.71-3.72,0.52-9.64,0-13.47c-0.7-5.15,0.89-11.5-1.2-16.42c-2.15-5.06-7.51-3.09-9.05,1.42" clip-rule="evenodd" transform="matrix(-1.06391 -.18532 -.1622 .96485 474.698 -23.843)"/><g transform="matrix(1.44951 .20227 -.18891 1.45124 -202.414 -274.639)"><linearGradient id="d" x1="370.925" x2="441.284" y1="772.378" y2="772.378" gradientUnits="userSpaceOnUse"><stop offset="0" stop-color="#6b8fc9"/><stop offset="1" stop-color="#4e5684"/></linearGradient><path fill="url(#d)" d="M403.35,771.13L403.35,771.13c0,0-13.99-49.07-18.66-65.38c-4.01-14.02-10.07-84,11.98-72.83
				c25.37,12.85,40.07,30.78,38.35,65.58c-0.55,11.18-0.98,50.55-1.18,71.8c9.64,12.38,12.77,31.69,8,44.06
				c0,0-17.6,67.05-18.81,69.74c-3.37,7.46-11.81,1.23-13.24-2.5L403.35,771.13z"/><defs><path id="e" d="M403.35,771.13L403.35,771.13c0,0-13.99-49.07-18.66-65.38c-4.01-14.02-10.07-84,11.98-72.83
						c25.37,12.85,40.07,30.78,38.35,65.58c-0.55,11.18-0.98,50.55-1.18,71.8c9.64,12.38,12.77,31.69,8,44.06
						c0,0-17.6,67.05-18.81,69.74c-3.37,7.46-11.81,1.23-13.24-2.5L403.35,771.13z"/></defs></g><path fill="#f4dcc9" d="M6.54,437.28c0,0,2.42,17.3,7.99,16.37c25.96-4.32,23.82-30.92,23.82-30.92
				c6.71-0.68,19.28-0.93,23.42-0.01c7.94,1.78,15.33,6.13,19.12,13.4c1.65,3.16,2.4,6.62,3.17,10.02
				c10.34,45.89,26.86,90.95,49,133.58c0.97,1.87,1.95,4.14,0.92,5.8c-0.53,0.85-1.49,1.33-2.42,1.75
				C96.43,603.4,69,629.31,28.81,627.17c-2.21-10.08-4.84-20.77-7.67-31.75c-3.87-15.04-8.12-30.63-12.18-45.94
				C4.68,533.31,0.6,517.45-2.6,502.87c-0.53-2.4-1.94-7.67-3.51-13.72c-2.75-10.61-5.99-23.62-5.8-27.82
				c0.17-3.78,0.71-6.94,1.6-9.77C-8.17,444.73,6.54,437.28,6.54,437.28z" transform="rotate(9.606 -834.481 1625.945)"/><g transform="matrix(1.98903 -.44214 .43437 2.02463 -502.11 94.586)"><linearGradient id="f" x1="278.252" x2="333.348" y1="378.44" y2="378.44" gradientUnits="userSpaceOnUse"><stop offset=".093" stop-color="#212844"/><stop offset="1" stop-color="#71465d"/></linearGradient><path fill="url(#f)" fill-rule="evenodd" d="M280.95,353.43c-1.04,33.43-1.85,82.92-2.7,91.97
				c0,0,23.51,12.6,40.57,3.92c0,0,13.04-55.37,10.57-86.96c-2.47-31.58-3.12-45.14-19.62-54.02l-9.13-3.85l-0.05,0.05
				C288.47,318.01,281.51,335.33,280.95,353.43z" clip-rule="evenodd"/></g><g transform="matrix(1.98903 -.44214 .43437 2.02463 -502.11 94.586)"><linearGradient id="g" x1="256.812" x2="284.911" y1="373.267" y2="373.267" gradientUnits="userSpaceOnUse"><stop offset=".093" stop-color="#212844"/><stop offset="1" stop-color="#71465d"/></linearGradient><path fill="url(#g)" fill-rule="evenodd" d="M281.52,313.86c0.62-1.35,1.33-3.14,1.49-4.58
				c0.16-1.52-0.27-3.59-0.25-4.94c0-0.03-3.36-0.65-3.36-0.64c-0.15,2.05-0.57,3.57-4.31,5.94c0,0-11.33,30.09-15.75,68.7
				c-4.42,38.6-1.74,61.57-1.74,61.57s9.41,3.68,13.41,2.77c0,0,0.6-12.27,0.37-13.03c-1.91-6.23-5.95-19.59-5.98-19.76
				c-2.85-14.62-0.35-17.29,1.38-27.02C270.17,363.89,275.91,326.17,281.52,313.86z" clip-rule="evenodd"/></g><path fill="#f4dcc9" fill-rule="evenodd" d="M316.57,458.89c-2.45-3.73-8.28-5.42-12.13-6.22c-4.16-0.86-5.91,2.77-8.62,7.86
				c-2.27,4.26-3.47,11.64-4.38,18.61c-2.23,17.14,6,30.51,11.68,38.44c6.47,9.03,12.83,12.65,14.07,12.03
				c1.39-0.69,1.83-2.89,1.98-4.22c0.46-4.16-0.01-8.36,0.37-12.52c0.51-5.63-0.48-10.91-0.74-16.49c-0.4-8.42,0.8-16.94-0.25-25.29
				C318.08,467.26,318.65,462.06,316.57,458.89z" clip-rule="evenodd" transform="matrix(1.45147 -.18715 .2385 1.84976 -309.476 -197.989)"/><path fill="#fab393" fill-rule="evenodd" d="M321.8,702.25c-2.8,3.41-6.87,7.33-5.67,6.6c1.01,0.63,4.84,3.15,5.13,5.13c0.28,1.87-0.18,3.75-0.2,5.62
				c-0.01,0.83-0.01,1.66,0.05,2.49c0.02,0.25,0.04,0.5,0.07,0.75c0.12,0.86,0.26,3.2,1.64,2.11c0.17-0.14,0.31-0.31,0.42-0.5
				c0.16-0.26,0.3-0.54,0.39-0.83c0.3-0.92,0.31-1.92,0.37-2.88c0.08-1.37,0.15-2.73,0.27-4.1c0.19,2.95,0.32,5.9,0.69,8.84
				c0.09,0.69,0.14,1.39,0.34,2.06c0.04,0.13,0.13,0.59,0.29,0.67c0.13,0.07,0.48-0.21,0.58-0.29c0.54-0.43,0.83-1.1,0.98-1.75
				c0.57-2.53,0.09-5.21-0.04-7.76c0.41,1.64,1.04,3.22,1.5,4.85c0.26,0.92,0.53,1.84,0.8,2.76c0.24,0.79,0.49,1.58,0.79,2.35
				c0.14,0.36,0.31,0.85,0.6,1.13c0.18,0.17,0.67-0.08,0.82-0.18c0.63-0.42,0.8-1.35,0.81-2.05c0.03-1.36-0.38-2.68-0.58-4.02
				c-0.22-1.46-0.27-2.93-0.56-4.37c-0.53-2.65-1.9-4.92-2.05-7.64c-0.07-1.34,0.04-2.67,0.16-4.01c0.21-2.21,0.38-3.92-1.44-5.46
				c-0.4-0.34-0.85-0.63-1.33-0.84c-0.63-0.28-1.34-0.35-2.02-0.29L321.8,702.25z" clip-rule="evenodd" transform="rotate(-7.347 -1133.126 2274.944) scale(1.46349)"/><path fill="#f4d0b8" fill-rule="evenodd" d="M306.29,530.86c-15.26,19.76-4.33,37.97,0.92,59.6c2.65,10.91,9.97,29.21,8.14,39.99
				c-3.37,19.91-3.58,34.28,2.71,74.32c5.54,5.02,12.44,3.19,12.91,0.95c9.72-45.94,7.04-58.65,4.62-94.04
				c-1.48-21.72-6.64-57.81-14.32-68.65C317.71,538.01,306.29,530.86,306.29,530.86z" clip-rule="evenodd" transform="rotate(-7.347 -1133.126 2274.944) scale(1.46349)"/><g transform="matrix(2.12093 -1.43156 1.30569 2.00431 -32.936 17.798)"><linearGradient id="h" x1="-101.142" x2="-73.918" y1="457.67" y2="457.67" gradientUnits="userSpaceOnUse"><stop offset=".093" stop-color="#212844"/><stop offset="1" stop-color="#71465d"/></linearGradient><path fill="url(#h)" fill-rule="evenodd" d="M-89.33,455.94c0,0-1.25,3.9-11.22,5.51
				c-0.67,0.11-1.34,0.22-2.02,0.26c-0.33,0.84-0.65,1.69-0.89,2.56c0.58,0.84,2.3,0.89,3.22,1c3.24,0.4,6.68,0.55,9.82-0.55
				c2.69-0.95,5.89,0.51,8.64-0.22c0.26-0.84,0.63-1.69,0.68-2.57c0.07-1.12-0.26-2.19-0.33-3.29c-0.08-1.1-1.42-0.89-2.1-0.45
				c-0.59,0.37-1,0.86-1.7,1c-0.95,0.2-1.78-0.22-2.72-0.24c-0.62-0.01-1.22,0.29-1.77,0.53c0.63-0.73,1.42-1.38,1.71-2.33
				c0.04-0.15,0.21-0.68,0.08-0.82C-88.23,456.01-88.96,456.13-89.33,455.94z" clip-rule="evenodd"/><defs><path id="i" d="M-89.33,455.94c0,0-1.25,3.9-11.22,5.51c-0.67,0.11-1.34,0.22-2.02,0.26
						c-0.33,0.84-0.65,1.69-0.89,2.56c0.58,0.84,2.3,0.89,3.22,1c3.24,0.4,6.68,0.55,9.82-0.55c2.69-0.95,5.89,0.51,8.64-0.22
						c0.26-0.84,0.63-1.69,0.68-2.57c0.07-1.12-0.26-2.19-0.33-3.29c-0.08-1.1-1.42-0.89-2.1-0.45c-0.59,0.37-1,0.86-1.7,1
						c-0.95,0.2-1.78-0.22-2.72-0.24c-0.62-0.01-1.22,0.29-1.77,0.53c0.63-0.73,1.42-1.38,1.71-2.33c0.04-0.15,0.21-0.68,0.08-0.82
						C-88.23,456.01-88.96,456.13-89.33,455.94z"/></defs><clipPath id="j"><use overflow="visible" xlink:href="#i"/></clipPath><g clip-path="url(#j)"><linearGradient id="k" x1="-99.859" x2="-74.948" y1="460.971" y2="460.971" gradientUnits="userSpaceOnUse"><stop offset=".093" stop-color="#212844"/><stop offset="1" stop-color="#71465d"/></linearGradient><path fill="url(#k)" fill-rule="evenodd" d="M-86.64,460.71l0.09,0.04l0.09,0.04l0.17,0.08
						l0.01,0l0.16,0.09l0.17,0.09l0.16,0.1l0.16,0.1l0.16,0.1l0.16,0.1l0.15,0.1l0.15,0.11l0.15,0.11l0.15,0.11l0.14,0.11l0.14,0.11
						l0.01,0.01l0.13,0.1l0.14,0.11l0.13,0.11l0.13,0.11l0.25,0.21l0.24,0.2l0.04,0.03l0.04,0.03l0.04,0.03l0.04,0.03l0.04,0.03
						l0.04,0.03l0.08,0.05l0.08,0.05l0.09,0.05l0.09,0.05l0.09,0.05l0.09,0.04l0.1,0.04l0.1,0.04l0.1,0.04l0.1,0.04l0.1,0.04
						l0.21,0.08l0.26,0.09l0.17,0.11l0.18,0.4l0.09,0.02l0.09,0.17l-0.16,0.1l-0.09-0.04l-0.34,0.25l-0.2,0.01l-0.26-0.06
						l-0.23-0.05l-0.12-0.03l-0.12-0.03l-0.12-0.03l-0.12-0.03l-0.12-0.04l-0.12-0.04l-0.12-0.04l-0.12-0.05l-0.12-0.05l-0.12-0.06
						l-0.12-0.06l-0.06-0.03l-0.06-0.03l-0.06-0.03l-0.06-0.04l-0.06-0.04l-0.06-0.04l-0.26-0.17l-0.27-0.17l-0.13-0.09l-0.14-0.09
						l-0.14-0.08l-0.13-0.08l-0.01-0.01l-0.14-0.08l-0.14-0.08l-0.14-0.08l-0.15-0.08l-0.14-0.08l-0.15-0.08l-0.15-0.07l-0.15-0.07
						l-0.15-0.07l-0.15-0.06l-0.15-0.06l-0.14-0.06l-0.01,0l-0.15-0.06l-0.07-0.03l-0.07-0.03l-0.07-0.03l-0.07-0.02l-0.07-0.02
						l-0.07-0.02l-0.07-0.02l-0.07-0.02l-0.07-0.02l-0.07-0.02l-0.07-0.02l-0.07-0.01l-0.07-0.01l-0.07-0.01l-0.07-0.01l-0.07-0.01
						l-0.06-0.01l-0.01,0l-0.06-0.02l-0.07-0.02l-0.06-0.02l-0.07-0.01l-0.06-0.01l-0.05-0.01l-0.05-0.01l-0.03,0l-0.02-0.01
						l-0.05-0.01l-0.05-0.01l-0.05-0.01l-0.05-0.01l-0.05,0l-0.05,0h-0.06h-0.05h-0.06l-0.06,0l-0.06,0l-0.06,0.01h0l-0.06,0.01
						l-0.12,0.01l-0.12,0.02l-0.12,0.02l-0.12,0.03l-0.12,0.03l-0.12,0.03l-0.12,0.04l-0.13,0.04l-0.12,0.04l-0.01,0l-0.12,0.05
						l-0.25,0.11l-0.25,0.11l-0.25,0.11l-0.25,0.11l-0.13,0.06l-0.13,0.06l-0.13,0.05l-0.13,0.05l-0.13,0.05l-0.12,0.05l-0.29,0.1
						l-0.28,0.1l-0.04,0.01l-0.52,0.21l-1.1,0.45l-0.54,0.22l-0.27,0.11l-0.27,0.11l-0.27,0.11l-0.27,0.11l-0.27,0.11l-0.27,0.1
						l-0.28,0.1l-0.28,0.1l-0.28,0.1l-0.2,0.07l-0.08,0.03l-0.28,0.09l-0.28,0.09l-0.28,0.09l-0.29,0.09l-0.29,0.08l-0.29,0.08
						l-0.15,0.04l-0.15,0.04l-0.15,0.04l-0.15,0.04l-0.15,0.03l-0.15,0.03l-0.15,0.03l-0.15,0.03l-0.15,0.03l-0.15,0.03l-0.16,0.03
						l-0.16,0.03l-0.2-0.15l0.14-0.21l0.15-0.03l0.15-0.03l0.15-0.03l0.15-0.04l0.15-0.04l0.15-0.04l0.15-0.04l0.15-0.04l0.15-0.04
						l0.14-0.04l0.14-0.04l0.14-0.04l0.29-0.09l0.28-0.09l0.28-0.09l0.28-0.1l0.28-0.1l0.27-0.1l0.07-0.03l0.2-0.08l0.27-0.11
						l0.27-0.11l0.27-0.11l0.27-0.11l0.27-0.11l0.27-0.12l0.27-0.12l0.27-0.12l0.27-0.12l0.53-0.24l1.08-0.5l0.51-0.23l0.03-0.02
						l0.27-0.14l0.27-0.13l0.11-0.06l0.11-0.06l0.11-0.06l0.11-0.06l0.11-0.07l0.11-0.07l0.23-0.14l0.23-0.15l0.24-0.15l0.24-0.15
						l0.12-0.08l0.01,0l0.11-0.08l0.12-0.08l0.12-0.08l0.13-0.08l0.13-0.08l0.13-0.08l0.13-0.07l0.14-0.07l0.14-0.07l0.07-0.03l0,0
						l0.07-0.03l0.07-0.03l0.07-0.03l0.08-0.03l0.08-0.03l0.08-0.03l0.08-0.02l0.08-0.02l0.08-0.02l0.08-0.02l0.08-0.02l0.08-0.02
						l0.04-0.01l0.05-0.01l0.08-0.01l0.08-0.01l0.1,0l0.1,0h0.1l0.1,0l0.1,0l0.02,0l0.08,0.02l0.1,0.02l0.09,0.02l0.09,0.02
						l0.09,0.03l0.09,0.03l0.09,0.03l0.09,0.03l0.09,0.03l0.09,0.03l0.09,0.03l0.09,0.03l0.09,0.03l0.09,0.04L-86.64,460.71z" clip-rule="evenodd"/></g></g><g transform="matrix(2.83271 .49341 -.3985 2.37047 188.665 -167.136)"><linearGradient id="l" x1="71.649" x2="105.19" y1="525.932" y2="525.932" gradientUnits="userSpaceOnUse"><stop offset=".093" stop-color="#212844"/><stop offset="1" stop-color="#71465d"/></linearGradient><path fill="url(#l)" fill-rule="evenodd" d="M84.53,513.84c0,0-1.25,3.9-11.22,5.51
				c-0.67,0.11-1.34,0.22-2.02,0.26c-0.33,0.84-0.65,1.69-0.89,2.56c0.58,0.84,2.3,0.89,3.22,1c3.24,0.4,6.68,0.55,9.82-0.55
				c2.69-0.95,5.89,0.51,8.64-0.22c0.26-0.84,0.63-1.69,0.68-2.57c0.07-1.12-0.26-2.19-0.33-3.29c-0.08-1.1-1.42-0.89-2.1-0.45
				c-0.59,0.37-1,0.86-1.7,1c-0.95,0.2-1.78-0.22-2.72-0.24c-0.62-0.01-1.22,0.29-1.77,0.53c0.63-0.73,1.42-1.38,1.71-2.33
				c0.04-0.15,0.21-0.68,0.08-0.82C85.63,513.91,84.9,514.02,84.53,513.84z" clip-rule="evenodd"/><defs><path id="m" d="M84.53,513.84c0,0-1.25,3.9-11.22,5.51c-0.67,0.11-1.34,0.22-2.02,0.26
						c-0.33,0.84-0.65,1.69-0.89,2.56c0.58,0.84,2.3,0.89,3.22,1c3.24,0.4,6.68,0.55,9.82-0.55c2.69-0.95,5.89,0.51,8.64-0.22
						c0.26-0.84,0.63-1.69,0.68-2.57c0.07-1.12-0.26-2.19-0.33-3.29c-0.08-1.1-1.42-0.89-2.1-0.45c-0.59,0.37-1,0.86-1.7,1
						c-0.95,0.2-1.78-0.22-2.72-0.24c-0.62-0.01-1.22,0.29-1.77,0.53c0.63-0.73,1.42-1.38,1.71-2.33c0.04-0.15,0.21-0.68,0.08-0.82
						C85.63,513.91,84.9,514.02,84.53,513.84z"/></defs><clipPath id="n"><use overflow="visible" xlink:href="#m"/></clipPath><g clip-path="url(#n)"><linearGradient id="o" x1="73.432" x2="102.823" y1="527.487" y2="527.487" gradientUnits="userSpaceOnUse"><stop offset=".093" stop-color="#212844"/><stop offset="1" stop-color="#71465d"/></linearGradient><path fill="url(#o)" fill-rule="evenodd" d="M72.5,523.6l0.15-0.03l0.15-0.03l0.15-0.03
						l0.15-0.04l0.15-0.04l0.15-0.04l0.15-0.04l0.15-0.04l0.15-0.04l0.14-0.04l0.14-0.04l0.29-0.09l0.28-0.09l0.28-0.09l0.28-0.1
						l0.28-0.1l0.27-0.1l0.05-0.02l0.23-0.09l0.27-0.11l0.27-0.11l0.27-0.11l0.27-0.11l0.27-0.11l0.27-0.12l0.27-0.12l0.27-0.12
						l0.27-0.12l0.54-0.24l1.08-0.5l0.49-0.22l0.06-0.03l0.28-0.14l0.27-0.13l0.11-0.06l0.11-0.06l0.11-0.06l0.11-0.06l0.11-0.07
						l0.11-0.07l0.23-0.14l0.24-0.15l0.24-0.15l0.12-0.07l0.12-0.08l0.12-0.07l0.01-0.01l0.12-0.08l0.12-0.08l0.13-0.08l0.13-0.08
						l0.13-0.08l0.13-0.08l0.13-0.07l0.13-0.07l0.07-0.03l0.07-0.03l0.05-0.02l0.02-0.01l0.07-0.03l0.07-0.03l0.07-0.03l0.07-0.03
						l0.07-0.03l0.07-0.02l0.07-0.02l0.08-0.02l0.08-0.02l0.08-0.02l0.08-0.02l0.08-0.02h0l0.08-0.01l0.08-0.01l0.08-0.01l0.09-0.01
						l0.09,0h0.09h0.09l0.07,0l0.03,0l0.09,0.02l0.09,0.02l0.09,0.02l0.09,0.02l0.09,0.02l0.09,0.03l0.09,0.03l0.09,0.03l0.09,0.03
						l0.09,0.03l0.09,0.03l0.09,0.03l0.09,0.04l0.09,0.04l0.09,0.04l0.09,0.04l0.09,0.04l0.08,0.04l0.05,0.02l0.04,0.02l0.16,0.09
						l0.16,0.09l0.16,0.09l0.16,0.1l0.16,0.1l0.16,0.1l0.15,0.1l0.15,0.11l0.15,0.11l0.15,0.11l0.15,0.11l0.13,0.1l0.01,0.01
						l0.14,0.11l0.14,0.11l0.13,0.11l0.13,0.11l0.26,0.21l0.24,0.2l0.04,0.03l0.04,0.03l0.04,0.03l0.04,0.03l0.04,0.03l0.04,0.03
						l0.09,0.06l0.09,0.05l0.09,0.05l0.09,0.05l0.09,0.05l0.1,0.05l0.1,0.04l0.1,0.04l0.1,0.04l0.1,0.04l0.1,0.04l0.22,0.08
						l0.26,0.09l0.17,0.11l0.19,0.4l0.09,0.02l0.09,0.17l-0.14,0.1l-0.09-0.04l-0.32,0.25l-0.2,0.01l-0.27-0.06l-0.23-0.05
						l-0.11-0.03l-0.12-0.03l-0.11-0.03L91,522.43l-0.12-0.04l-0.12-0.04l-0.12-0.04l-0.12-0.05l-0.12-0.05l-0.12-0.05l-0.11-0.06
						l-0.06-0.03l-0.06-0.03l-0.06-0.03l-0.06-0.03l-0.06-0.04l-0.05-0.04l-0.26-0.17l-0.27-0.17l-0.14-0.09l-0.14-0.09l-0.14-0.09
						l-0.14-0.09l-0.01-0.01l-0.13-0.08l-0.14-0.08l-0.14-0.08l-0.15-0.08l-0.15-0.08l-0.15-0.08l-0.15-0.07l-0.15-0.07l-0.15-0.07
						l-0.15-0.07l-0.15-0.06l-0.15-0.06l-0.03-0.01l-0.04-0.02l-0.07-0.03l-0.07-0.03l-0.07-0.03l-0.07-0.03l-0.07-0.02l-0.07-0.02
						l-0.07-0.02l-0.07-0.02l-0.07-0.02l-0.07-0.02l-0.07-0.02l-0.07-0.02l-0.07-0.01l-0.07-0.01L85.85,520l-0.07-0.01l-0.07-0.01
						l-0.07-0.01l-0.02,0l-0.05-0.01l-0.07-0.02l-0.07-0.02l-0.07-0.01l-0.07-0.01l-0.05-0.01l-0.05-0.01l-0.05-0.01h0l-0.05-0.01
						l-0.05-0.01l-0.06-0.01l-0.06-0.01l-0.06,0l-0.06,0h-0.06H84.7l-0.06,0l-0.06,0l-0.06,0l-0.06,0.01l-0.01,0l-0.05,0.01
						l-0.06,0.01l-0.06,0.01l-0.12,0.02l-0.12,0.02l-0.12,0.03l-0.12,0.03l-0.12,0.03l-0.13,0.04l-0.12,0.04l-0.13,0.04l-0.01,0
						l-0.12,0.05l-0.12,0.05l-0.12,0.06l-0.25,0.11l-0.25,0.11l-0.25,0.11l-0.12,0.06l-0.13,0.05l-0.12,0.05l-0.12,0.05l-0.13,0.05
						l-0.12,0.05l-0.29,0.1l-0.28,0.1l-0.06,0.02l-0.49,0.2l-1.1,0.45l-0.54,0.22l-0.27,0.11l-0.27,0.11l-0.27,0.11l-0.27,0.11
						l-0.27,0.1l-0.27,0.1l-0.28,0.1l-0.28,0.1l-0.28,0.1l-0.23,0.08l-0.05,0.02l-0.28,0.09l-0.28,0.09l-0.28,0.09l-0.29,0.09
						l-0.29,0.08l-0.29,0.08l-0.15,0.04l-0.15,0.04l-0.15,0.04l-0.15,0.04l-0.15,0.04l-0.15,0.03l-0.15,0.03l-0.15,0.03l-0.15,0.03
						l-0.15,0.03l-0.16,0.03l-0.15,0.03l-0.17-0.15l0.12-0.21L72.5,523.6z" clip-rule="evenodd"/></g></g><path fill="#2b2419" d="M148.88,517.28c0.17,0.78,4.22,38.42,10.69,40.71s1.54-42.22,1.54-42.22L148.88,517.28z"/><path fill="#fcc1a9" d="M155.77,566.21c2.1,5.24,7.45,7.93,11.94,6c4.49-1.93,6.42-7.74,4.32-12.98c-2.1-5.24-7.45-7.93-11.94-6
					C155.6,555.16,153.66,560.97,155.77,566.21z"/><path fill="#fcc1a9" d="M154.99,528.5c0,0.01,6.88,71.47,34.49,66.58c19.64-3.48,26.9-9.9,27.47-28.09
				c0.4-12.81-1.76-33.24-7.3-45.28c-2.27-4.93,2.48-13.23-1.94-16.15c-10.11-6.69-24.99-8.03-35.89-4.02
				C160.28,505.77,153.96,515.57,154.99,528.5z"/><path fill="#2b2419" d="M211.3,544.68l-7.01-22.87c0,0-34.94,16.2-50.37,7.78c-31.36-17.1-10.18-51.07,37.04-32.62
				c10.91,4.26,19.63,4.95,23.3,6.26c2.65,0.94,4.76,3.11,5.64,5.9c1.81,5.73,7.8,34.81,5.46,46.14L211.3,544.68z"/><path fill="#fcc1a9" d="M230.21,549.51c0.27,6.4-3.99,11.74-9.5,11.91c-5.51,0.17-10.2-4.88-10.47-11.28
					c-0.27-6.4,3.99-11.74,9.5-11.91C225.26,538.05,229.94,543.1,230.21,549.51z"/><path fill="#2b2419" d="M200.25,503.09c-6.13-5.56-18.98-14.8-36.11-14.19c-5.95,0.21-11.8,1.61-17.41,4.14l-0.64-1.52
				c5.78-2.61,11.83-4.05,17.98-4.27c17.68-0.63,30.9,8.88,37.21,14.6L200.25,503.09z"/></g></svg>